<mxfile host="65bd71144e">
    <diagram id="lXV5gbwWm9uy6xqKzNlI" name="ページ1">
        <mxGraphModel dx="878" dy="502" grid="0" gridSize="10" guides="1" tooltips="1" connect="1" arrows="1" fold="1" page="0" pageScale="1" pageWidth="827" pageHeight="1169" background="#ffffff" math="0" shadow="0">
            <root>
                <mxCell id="0"/>
                <mxCell id="1" parent="0"/>
                <mxCell id="37" value="" style="ellipse;whiteSpace=wrap;html=1;aspect=fixed;strokeColor=#A50040;fontSize=14;fontColor=#ffffff;fillColor=#FFCCE6;" vertex="1" parent="1">
                    <mxGeometry x="637" y="532" width="123" height="123" as="geometry"/>
                </mxCell>
                <mxCell id="16" value="" style="ellipse;shape=cloud;whiteSpace=wrap;html=1;labelBackgroundColor=default;fontColor=#FF0000;fillColor=none;labelBorderColor=default;strokeColor=#0000FF;" parent="1" vertex="1">
                    <mxGeometry x="430" y="117" width="430" height="324" as="geometry"/>
                </mxCell>
                <mxCell id="4" value="" style="shape=image;verticalLabelPosition=bottom;labelBackgroundColor=default;verticalAlign=top;aspect=fixed;imageAspect=0;image=data:image/png,iVBORw0KGgoAAAANSUhEUgAAAgAAAAEACAYAAADFkM5nAAA7t0lEQVR42u3deZhT1fkH8O97kswCM8O+ioqCgOCOG7LdZBDLz6VuuGBtq3XfrbbWVuu0tVrrVjfqbt1AGduqWKmUmQTEpbbYurGJiBuyKTD7TJL7/v4AKiqTZCa5OcnM9/M8+UNzc857TsKcc889C0BERERERERERERERERERERERERERERERERERERERERERERERERERERERERERERERERERERERERERERERERERERERERERERERERERERERERERERERERERERERERERERERERERERERERERERERERERERERERERERERERERERERERERERERERERERERERERERERERERERERERERERERERERERERERERERERERERERERERERERERERERJkntgOg1OlU+GoL9rxCgeNVcU33GUvm2Y6JiIjyEzsAeWLjKSMGGyMzAIzZ7n8/JRq/uGzm8g224yMiovzCDkAe2DxtxBGAzADQcwdvr1WR07o/ubjKdpxERJQ/jO0AKLHN00ZcBMiL2HHjDwD9RPXvNdNGXqns0BERUYrYYOSwmtNG3qiqP0v1egUe7DZsyblSAdd27ERElNvYAchRNdNG/FYhP2/HR58qW93vdIlEYrbLQEREuYuPAHLQpml7XtXOxh8ATqkZuPZxreB3S0RErWMjkWM2nzrqOwL8Ns1kTql5f+R1tstCRES5i48AckjNqcNGqPheB9AtA8mpCk7t/uSSp22Xi4iIcg87ADlizen7dC2OR/8DYI8MJltnxBxS+uR7i22Xj4iIcgsfAeSI4nj0N8hs4w8AJa66T+g5owO2y0dERLmFHYAcsHnaqIMBXOJR8vvX1DdcaLuMRESUW9gBsGzL5j3uvQB8HmZy7eapo3qmnxAREXUU7ABYtnnayBMB7O9xNj3Fr1faLisREeUOTgK0SKfCV1Ow5ztQ7JmF7Da2FLm79nl4Wa3tchMRkX0cAbCotmDElCw1/gDQo6DRnG67zERElBvYAbBIIedlNUMBOwBERASAjwCs2TRt7x6C2DoA/ixmq1CtEJ/vv9GY/KfXU+9+4mlmU+Grx6g+Lf5YXyPyv6WITb6Cpf0ff7s+i+UmIqJvyGbjQ9sRjX4HItmuf4HIr9R14TfA5ml7rgfwHwH+A2NebWpGdd/K9+ram3jtaaNGKuJTVOUgAPvVAHsArvF9Y6CpOB67DcAVWS47ERFthyMAWfbFaUPLfCicLOpeAeBQ2/F8Q1QUr7jQl1TNS92fWvxfATRheU7Za2e/iZ0JmO8DunuK+TT7DXbr+sSSz20XmIios2IHIAvWnL5P1+JYyzEAToHIEQAKbceUog8BPCFxfaLs6aXLt39j4ykjBhuRCghOQztGkkTlxrKZi9t74iEREaWJHQAPbZw2aj8D91wApwEotR1PWgT/BPC4+PQpxOVHqrgOQJc00ltT9lm/nSUSidkuGhFRZ8QOQIZpBUzt8pFHK/RKAONsx+MBF5laPaJmSreZ7/3ddoGIiDojTgLMEK2AqVk2clrNcr0G0OG24/FQ5paOinsMAHYAiIgsYAcgA2pOHXH05mVyg4juZTuWPBOyHQARUWfVIR8BaAXMpuV77ixqhsDEh8CVoSLoL0CJAmXbXdqk0PVQWS+C1YAudSFLu89Y8nGy2e8AsHHanrsa4G4AR9kuc77yRc2Aksr31tiOg4ios+kQHYCNP9yvu2lqHisG41UwHorRSG+mfQ2AhQosEFciZU8tfmP7DoE6jr92wJpLVORXAEpslz+fGVWndObS+bbjICLqbPK2A1A3dVT/uN89XoCpKhgPL4/TBT4B8AwEs1Q1KpD7ARxguw46AgHOKpux5CHbcRARdTZ5NQdAAdl82siQqF4ch3sUAF/ScfrM2BnA5VBcLhBFHnecco1CdrYdAxFRZ5RXHYCaU0dcK6q/shwGG/+MUh5IRURkQX798TXobTsEIiKijiCvOgCqnHDX4Yhk6SkOERFtL686AAIpth0DZZYCPBCIiMiCvOoAAOLajoAyTHWF7RCIiDqjvJoECCgPjvk6FehnClkFwSpVXQPIBkA3AmajCOpUNbrtYgPpCkEvuNrLNegjwAAAe0AxDEAPGwWQqHnTdiUSEXVGedUBUCDaiafgtwBYBOANAG+6rrzTPV6zVCo/bcxE4jWnDuvtGv++ojoGgkOhOBRAL68LpX73KgBXeZ0PERF9XV61p5tOHXmLiF5hO45sUeAdA7zoAvMaSrq8OvD+RQ1Zy7sCpub9UaMBPQqqRwHYH979Xq7vNmPJtdkqGxER5VsH4LQRV4vKDbbj8NhHEDwh4j5e9sSyZbaD2WbruQffx5bX0EynL4qfls1ccrPtchIRdRb51gE4W1Tutx2HB1oArTSKB0pmLl2QykFEtiggtd8bOQ4uLlXoscjcFswK1dO6zVw603YZiYg6g3zrAEwWlZdsx5FB9apyb8Cnt3Z9YkneLYfbdPJeQ8QXv1yBMwXIxBLNZgNMLp2xZIHtshERdXT51QHY0uB0hGVjrigeEn/gmtLH315nO5h0NXx/2E6xqO86FZyB9CeWro1J4MBeT779qe1yERF1ZHnVAVDH8dcMXFuH9I76te01hV7cfcbSRbYDybSak0cMU5+5BdCj00pI8M+yL6MTZc6KZttlIiLqqPKqAwAAm6ft+RqAQ23H0Q71Cv1xtxlLH8jlZ/yZUDNt5HcVeieAXdJI5o/dZiy5wHZZiIg6qjzbCRCA4nXbIbTDf0TjB3afsfT+jt74A0DZjMXPNfoCIwG5G+0v7/mbT9nzSNtlISLqqPKuA6CQ12zH0EZ3lG2MjimbuXyp7UCyqf/jb9d3m7H4YkCnoL37/fvwYM2pw3gCJBGRB/KuA+AGJF9GAOIKXNBtxpLLOvOz7G4zlr4kGt8HwNw2f1jRH+KbbrsMREQdUd7NAQCAmmkjPlHIINtxtEaBRqOYVjZzybO2Y8kVOhW+2oKR16vqVWj77+7IbjOWvGi7DEREHUnejQAAgEKesx1DArXG1Uls/L9OKhEve3Lx1Qo5WYE2nl8gd+nUQTwKmogog/KyA+AafcZ2DK1ocuF+t+yppa/aDiRXdZ+xuNKomQxgY+qf0t1rAmU8MIiIKIPy8hGAToWvJrDnZwD62Y5lOzGBnFg2Y3Euj07kjLrTRuwdh8yFon+KH6n3Rc3Qksr31tiOnYioI8jLEQCpRByCv0KAXHmJkXPY+Keu5Mml74i4DgSrU6zjrvFC95e24yYi6ijysgMAAFDziO1Gf7vX9LInFj9iu0ryTdkTy5aJGy+H6LqU6hk4a9MP9hpiO24ioo4gbzsA3Wa89wZEX4UobL5E9K2y5torbddHviqbuXyp+vB/EK1Lob4D4sZZ10REGZCXcwC22fSD4SeJytMWQ9ioqqO7P77sQ9t1ke82/WDEZFG8ACCQ5NImX9Q/uGTmu2ttx+wlx3H8AIYaNXu6gmEG6OEC3URQCFeiIrpRVb9QMUuM0SXV1dUf2I6ZiPJLXncA1HH8NbusWQHBrnYC0NO7PbbsCdv10FFs+uHw80Tlj8mvlOu7PbrkWtvxZprjOINFfMdDEQJ0IoCSNnx8jQDzVHROSUnJs7Nnz26wXR4iym153QEAgJozhp8BxcNZz1gQLn1kWXln2Ns/mzb/YPh0EZyf5LI1pQUlu8j9i6K2403Xljt938mA/kgUEyEZeCynqBHBrJhr7lywYN47tstIRLkp7zsAOhW+2pJhbwEyKovZNrpufO/uj67gsGuG6TmjA7XRulcBHJjoOhE5sfThpX+2HW97jR49OlBa2v1MgXsVILt5lI0q8KyI/iocDr9lu8z0dY7jFAHo7ff7C5JdG4vFPo5EIjHbMVPHkvcdAADY/KM9jhQ1L2QtQ5Gflz209Ebb5U6m7oej+qvERkJkqEJ3B7QfYLopUCqqjRA0CTQGlXUqukZVPlXB0qZo4ZL+j79dbyvumjOHDxfgTQW6JLjs72UPL5tiK8Z0lE8sH++KTgewV1YyVLgweNIYubyqquoL2+XvrILB4HDAfFdVJ4niEAjKUvmcAO9PiEwYUYEK13YZqGPpEB0AAKg5c3glBCdmIatPS+PNe8ifVjXZLvM3bTp/7x6mJXoMoOUAxgFo752lAlgB6CsQWRAz/qqe97/3cTbLUnvW8PNVkeggoJi48YGlj6xYn8240rHljs/cLsC5sPNvb60ozqieXz3Hdl10Jo7j7CfwXQPV49rziEchl0UiVXfYLgd1PB2mA1B/zp4D4m78XQA9vcxHIBeUPrgshYlq2aEVjr/uk8+PU9EzAZQj+Sz6dpYbixT4iwuZ2f1B71c9KCC1Zw+bDcWRrcYken7pA+/f63UsmVBeXj7MjessAPtaDkWhenvvvr2vrqysbLFdLx2cOE75JQK9Ge3/d1nn85tB8+bN22y7MNTxdJgOAADUnjX8RBWt9DCLVaWbAsOl8j3rfzjXnL5P1y7FzRcq9CJR7JzFrF0o5gJyb+mgZbOlAp4NS9adtVs/VwLvAui9o/cVmNftgeWHZ7Hs7VI+sXyMC30BkpHOaT2ArhlIZ35BYeD4l1566UvL1dMhVaDCzHfmzwDk5LQSUpkenl91oe3yUMfUoToANWfvcRREZnuWgchZZfcte8hmGbXC8dd9vvpMVVQAGGAzFgBLVeS3ZV8umymViHuRQe25e5ynrS8NbGmOSe8+Dy+rtVwPrQoGg0dA5c9oe6P9AaDzFOZlEXdpNBpduXDhwv8doOQ4Tm9jzDDEsa8CkwBMSvWZ8naW+fxm8rx587L6eKczcJzQ7QJclm46CnfvSCTyru3yUMfUsToA5w57FMD3PUp+XWmBu4vctaLZVvnqzhmxtyvuw0gyQ96CZap6Rbf73/9bphPWqfDV9hj2JgT77PgCHFd2//JnbVfAjjjOpHECdy6AVI8ybgL0UTHycHV19Rtty8spEpHjoXIOgImpfEaAJYXFhYfOmTOnxnZddSTBYPAkZGSDMp0XjoRzfoSL8leH6QDo1FEFtT1b1kLQ3aMcbii7d8UvrJQNkNpzh/0MohUAki4ZskbxN1f10u73Z3Z5ZO15w0MKt2pH74niD6X3vX+57aJ/UzAYHAWVlwH0SOHyGAR/VHVviEQiaZ926DiTxgHurwUIJrhsY9z1HbJgwT/et11XHcnUqVMLNqz/YjGA9M+sEP1uOBx+3naZqOPqMB2ATRcMnWxUXvIo+XjcxIb0uOfDj7Jdri/P2b2b3+d7DMAx2c67nepFcUXJve/fn8lNkmou2OMvUBz3rTcEr5VNf/8w24Xe3tixY0sL/IX/hmBYCpe/FXfNGQsWzPtPpuMITQxNVcHtAHb6xltxiB4ZDoe9+vfSaTlO+bkCTTYxtUmBewH3ydLS0sXctZFsydvDgL5dECn37LQ/g7/ZaPwbLhiys9/vex2CY3LgxMNUX13V4N7aC/aYXXPhiF6ZqguNx6+CILaDEwL316mjcmpUpMBfeG9Kjb/gAYV7qBeNPwBUz6+uND7ZF4oXv54tfsbG3xsCnZrwAsXHCvegSKT68kgk8m82/mRThxkBqL1o6L+hGO1F2ip6XNndHzybzfLUnD98uJj4XAC7ZDPfDFsp4h5bcvfKjGxHW3vh0CcAnPbN/2/UPbjr9JX/sl1YAHCc8hMFyVeiCHBTdaT6Z1kKa7vlaDorHAl/z24tdUyTJk3qFo+569H6kr+muGsO5vbMlCs6xAjA1jvN/T26o60rDTRn9W5p42UjBosvXg3BLjlwR5/Oa3eFebXm4qFHZ6hqboRAv5mP65NDsvn9tMZxnBKBe1vSC0WuymLjDwAaiVTdAdHxTc1NZ9uroY4tHo8fiATr/QW4j40/5ZIO0QEQEwtCYDxqxF6U2z9tzFZZai8e2scfj70EwcAcaMAz8SoR4C91Fw/91p17W5Xes+I9EX3x248BZGS2vp9EDMzPAEm4J4MAd4TDVb+3EV84HP7na6+9lrXfcmejavonfF90pu0YibbXIToAEPXu+b8gawfOaIXjh6ASgmE50HBn8uVXwWM1lw5J/+5TcPc301dp95bHGTNp0qRuCiTesEXxxubazT+xHSt5QwT9Er2vqstsx0i0Pb/tADJCxPHoVN7mxmjRi+knk5r6TZ/8FpLaGu42qAHwEYAaKBoBFALohy2NpifbBrfCCHBv7SVDakvv/OCp9ibStecHc+s2DvkE+Gr3Q2n/mQcZE4u5FwkSLEFVNMTVf8qiRfl/hDHtmKiWJfor1KdPH074o5yS9x0APWdglzrRVJZbtccbfae/V5eNctReNiSkwE8yMC2zVoG/iurzPuN/vcvtyz/b0UV6zuhAbcnG3RDHMBE5GIqjINgP3k4MNRA8Wnfpbl+U3PHhP9qTgFTArb0MfwJw7VeFwa4expxUBSrMfMw/N2HVGfntgvBcz89Q6MwmT57cNRqN7qVq9hJ1B8KYUlEtUJEGVXzmUyyPS/xfkUhkk+1Ys8FxnP4+9e0dF4wEtLcBSl0gaoB6F/KhT7E4LvH/5NIxw5MnT+4bjUbHiSs7uYK+BigFUOcCq4zB267rvmkzXsdxSnzq21uhe6mRAapaCsAvqg0C+VSNLi8qKvpXvmyulferAOov3f0g10ibdk1rg+tLb//g2vSTSUzPGdilrkvx25C0Ng95VVSnd21o+qvcv7pddxoNFw8dFPe7RwE4F5D9PCxyrZr4wWW3rlrang9vunL4br54bAW2e4RVEpMiW7s0Os6kSQI3UYdmbVNz424d5fn7uHHjegT8BTs8Q8D4ZFRVVdXiLfXi+AG/Y+A6uuV0yn7Ycq5DL7T2t0fhig/DqqurU9pMauzYsaWFgcLTXOB4ASZgywhXInEoFolgpr/AP2Pu3LnrvnlBcGLoPQi+Na9EgdmRSHWr+3GEnFCFAtclyHsj2kDhjmzrxlATJhy+h8/nngFXj0Rru2d+Xa0C84zi8c11m1/45ghVcMuGVjveilj0B+Fw+LHWEg4GgydA5ZkdvBUNR6r/t3R3ypQpZY2NzecL5ESoHoBEJyYqagB5Fsa9PxwOv9KWumkvx3G6i8j34cp3AYyDJN2MLQbFGyKYGSgMzNjReRtBJ/QJgEE7KOCT2Vylk/cjAHFj9hHxZPgfIu6CbJShrqT452jnzmECrFKVq0puX1EpaT4H6XLXik8B3Avg3rrLh05W0Z9iywmDmVYq6vvzugtGHdKeEZbutyz7sPbHQ17FlkYFALA+XhgAYKUDIOJOS1TzCtzeURr/VDiOU2RgzlLgCsAd3KYfpejc6upw0sbfcZzeIubnUJylQGkb7mR8EByswMHRltgNwWDowUDAf/2OOgIe6NGWiwOBQMpztBzHOVAgvwHiR0Ahbbi1KxXgOBUcV1babZXjlP+uT5+eD1ZWVnpytsf2pkyZUtjU0PTTpobmy0TQc8uep0k+JCgD9PtQ+X5wYqg6ruYyr1ZWOI7TXyDXQOUMAF3aUKd+CA5T4LCW5uiNjhO6t7AwcGMuHryV95MARdy9IAoPXtE6aXjV6/jrL9t1AKCXtyM+FehNXcvie5bevmJWuo3/N5XcvmJu6W0fTFLR8RBd6kH9jiwubnygvfGpYPb26fUpqLfXmVUk2q895vPJn6zFlu2qUB0kMBEF7gIwuK2fF5XpyS5xnPILBWYFFJdjyxBxexVDcXG0JbbUccp/ZK/W2m/cuHE9gsHQYwLzBiDfQXqjuoMFeu+GdV+8EQwGPT22esKEw/doamh+FSK/RntPyRSEfMZdFAwGL8lkbBWoMCEndKXArADkQgi6pJFciQBXtjRHlwaDwWmZjDMT8n4EAD7s7c38P323/y1r670O3/X7rgHa/ANrgMiZJTd/kIEDRxIru3XlQq0YvH99rblOBVcis7+ZU2qvHPJc6S1tnxQokBcgetO2/671FVj5LU+YcPgeQHxQa+8L8Peqqqq1NmKzQV08B6ConR//qFffXq1Oui0vL+/lxvEkoEdkOOweAn0wODEUamppPCtrlZWmrYdNzYRiUPqpbUdwAFReDwaDFwL4pweh+30mvgjpdd62CUDljmAwNELVvSTd+QHl5eX95scXPI0UD9Rqgz5QeTLkhIK9+vS6cMP6LzKcfPvk/QgAgH28WLqmIu95HXjN1SN6QfDDNsa21rhmXGkWGv9tpGJVU8mtK682isMgsjqzda131l49tE9bYyq9dcViCD7Ylo5I3Mpv2Rg34TkEKjrHRlwWtbfxB1Tva23oORQKDXFj+qoHjf9XBNMKC4tfgrT56OasC00MnSpw5wEZbvy/UgSVh6C42oO0BZlp/L+iOF/UPIo0RkDKy8tHunF9HZlv/LcLE2dtWPfFbCSfq5IVed0B2HjZ4O4i2kdEkemXESz2On7jtpwtol1Sj0nrjOCorret8GTv+GS63rryX37XPUygSzNY130kFvtDe+IRwext6dijIxK9G4/7whaDyx+KFuM3D+/oLcdxBqmLKqR2uFJaBBgP2F1VkkwwGDxeBY8jK42IpL2BV9YIpgWD5e3aZ8NxnKFuXKvQjsdW7YhzMoA23/R4Ia87AIUF4tmGOSKu5x0AQNty9x9Vo1O7/n7lv23WefGtH37k+lvGieirGatvI6c2/HS3g9saiyv487Y0oj61MgHQAIk6AM39+vVYbiOuvCNauaNHJZMmTeomMPOQ441yShTVgM5L9eW67rd+06FQKASVpwD4bBcnJ6neEAwG23QH7zhOb4H5B4D+bflcR5CXcwC0YmCXhqbCy13gp17lEYsbTzsA9T/bdX8Fhreh1NeW/G7V372MKVVlN372xbqKUUd0aWqoBnBQBpIUV3Az2jj0VnbTyoX1V+9+NFxoz5tWbrZRFy6wU4IxxxXpzqYOBoNnwpVf2CibCt6KRKqPz1BycUBfE0iVC/nEqH5tnbQruqPDnCQedR+GpPzvpBGQuaL6HHx4D8BnruvWBwKBLvF4fARcHKaQEwDdz0Z99u7ba0plZWVLez9/+OGHD4xF4zOQ6gZeitUqeF5E56jqSgBrYrFY3Jji3n6J76Wi5VCZCkFfG/XRStB/V5hnfD68BmBtS0tLgd/v3wUwR8DVH0Cwe5IEfFBzC4CDkcLE6C17eLz8BKCDUwywHpC/Q9znVXVxIBBYHY1GGwCUiMhwURmvwAkA9rJdk6nIuw5A7c8Gn1zfLLdBMNDLfMpiLZ96mb4r5vg2PKx6q2vh4FuBVV6G1CZ9K96rq7166JGC+D+RmZ34JtT/fNcpXW/4qE3PzLveuPIFm/UgQFlr7ymQgaVlpjtEk/3R86Zsig0ZSunPcddcvWDBP95vy6ccp/z7gCbvgChaYHBfLBb9zcsvv7x+B1dsArAaQDWA6x1nkiNw70Ke/JHeJh6N3wck3m54C/lcVK9zxX2klUlxGwG8D+CvU6ZMuaK5ofkcBa7fssTOEsVy8eGM6urwjlZefQ7gn1OnTv3dF+u/uESBG5CwE6QHhiaGTqyeX530VM4FzoILAKQyr6RJgbtjsZYbFi5cuKP9HDYB+BRAFYCKUCg0WeO4KxuPrdKRNx2A2oohfU2LO12hJ3i07e//CLTO6wOAjGgoxVK4RvV8qcid3bq2Kb1xxfq6q3Y7Dj59DUBxuumpypUA8m3SXElrb4ii1nZwVilcAS6rnl91V1s/uvVo3ZuSXqj4WMX9biQc+W+qaUci8yKjR48+oKys+9Vw9bqEG8/kiNDE0NEKHJW8OjA7Gm067ZVXXknptzdnzpxmAHeFQqG/qCsPeTrJsnWvqLhHhasT79C4dfTklvKJ5Ytc0b8hwd8cFfk5gIQdgPHjx/dR4NfJghPgfRfuMZFIJOWNy6qrq+c6jrMvYK4T4Crk6KZ7Of/DB4C6n+9SLtH4uyp6QjYOr1GR9alH13Z6Zb+uKjgotefjmNXlxo9es/0dtKbkpg/fgug1mZkLgFD9tbuMtl2mNtEE/7Dtzk60z8jV1fOr29z4A1vOVkDSu135r/HLwZFI6o3/NosWLYqGw1W/VpFzoHBtV1USoiJJGyoI7nIiE45NtfHfXnV19Wc1tZuOhuIvWS7bKoV7bFu2Z66aXxVWyBmJr9L9HMdJOMIT8AWuQNLNmeT1QGHg0LY0/ttEIpGmSKT6aoVcDq/vWtsppzsACkjdNYOvgjEvQdAnG43/1penHYDGwuK9IQikEosRvdP295BM1+Uf3aGC1zPS+VKT0U09sqD1nQy37BOez9I5B2N+e489dhynSICLk1y2Ju76jkl3j4VIpOohFcnp31woFDo86bwFxfMTwxMuq0BFuzszixYtitbUbT4FkJeyVjjRKyORSJsfNUUiVU9DkeSgNl+roxljx44tVeC8JNl8FCjwfTfdHfwikao7oGplHk8yOdsB0ArHX3/t4Ach+B0Eviw2/oDA010a1Cd7p3hH/EaX3+Tu3f82Uom4T+VSyNb74bRWX+jxemW/nF+HvZ1EjWRv28GlxaDdjatRSeMMDd93kOzuX/R7CxbM/SQTxYxEqqZvmXmfmzSOHyS55LOWWPP30mn8t1m0aFFUET9ry5773hLg/XA43P4RB6M3JEl/TGvvFfoLjwXQLcHHVQxOytQW0RPnT7wJkNczkVYm5WQHQCsGF9XFV/0Zomd6tM1vwpfC2yVlCh2SYhyPpZ9bdnT57YdviOCZtOteUFJfXHic7fKkSgWftfrmlsOd0nz2526CYqVHr4R/3ETbPYnxs6r5VQvbW2KBe2LiSseL4XC4Kr16/XqKYuQ8WDpLIpEpU6YUQnB04uqQ69oz7N+aSCTyqQDXZKF4zyONofGJ4YmvAUhwWJK2unpEgYS/MQGerq6uztghcxWocOOunAPA8zMW2iLnJgFqxaiCeq37sxj8n7UgjHo7YUMwIKXr4qi2VgftYfR3UExNOx2RUwE8Ybs4KYWq+j6k1Z9L10mTJu02b968le1NPxwOPwzg4fZ+PpHgxOC1QOvPll1Im2btf1UpeBXpPPNUCSbqNhnI9Zmui+rq6g+CE8ufhuj3M512Opqamg4EJNGjpE/79On5p0zn64r7gMD8Eh6OYrmQtA7xqUCFG9TQYkir6/f7tfI5M18WJFxyrKIZ/40tWDDvnZATmq3AsZlOu71yagRAZ8HXgLqnRPB/IoCtl4F42jES0d4pxPF5yW8+atdxubZ0rfjoTYguyMB3ENSKwe3fUjaLRBI3kvF4fFyqaVmI/tAk77/VrmRd+by9EU2aNGmXJEt8P6uaX+XNUKpxZ3iSbnpBHZL4fX3Oi5P7IpFIE6B/9rJkIm4m5lq1PgKgO97SeX5w/p5IPPy/NBwOe7MVvCKnfmM51QGoX7zLbRA9zsaw//YvMZr2krZERLQwhTgWiuTmzNHEhdM/ZeA7KK5HfILtoqTChZuwMRKVw1NNK5vGjBlTDEmw8ZLCLS4OvN2etEW03Uto4/H4HgnT3rJM1Jvjv1TnA8it5bbqJl5HLskmwrWfqGTyMcuOZKDjIq1/X60s71Q1CX9jEO+WIgeKAl7XaZvkTAeg/tc7nycGl2R5st8OX+rxzlguUlkBoMtsfyft0ayFf4Ygmu53YAxysuH8JifivI0tm4DskCqOGTNmjKcdyvYoLOxyBJDg0BvBv+bMmeP5RLBvZetKwg2+VORDr/LecteLD7Jd5oRUEj4u3LrDnzdZG83CdujZJ+Im/I2JwrM63bKioP0jZJmWEx2Aut8O2gcif7Dd8P/vBezsZXnFoCV5DOYji19Ju/WqWFEjoq+k+x24Ioe0I/usq0CFK0Ck1QsEZYWFXU6wHee3w8JZSd63su20msRLJ1V1tcchZGj3wwwRTbg7n9/v96wxMcbkVl1kiKok/o2Jt78xgeZMvVrvAGjF4CJR8yQEhdYb/q9e3b783e7dksWeRq1vSroczqdZv/vKFBUJp78cEPtqhf3fZ2oFxqxEbwtwhe0Qt1deXj4SqlMSXmTwvI3YRCXJUjaJehxBjh2yIwmHyevr69t9tkAyLS0t+fHvr41ENeFvTFxvf2OquXOQk/UvuL4gdhNE97L93P+br0A86tkogEI/SWEJYEn6OVli3H9n4Dsoay4cZGUP/LbyF/qfB1Df+hW6n+OUn5hygh5zY8m2v5X/VldXv2klOE1Uj4CBenyMqubU3g0KNCR6v2vXrp7VR0FBQU4cWZtxJvFvTI3Xv7Hc2R/Eageg7re7HC6Qi3Pgjv/bz6BFBntVbjFYkXQeQtItKnOXMe67mfgO4iKjbJclFXPnzq2HypOJrhHozUcffXQX27GGQqEQJPFSTVH1ZNlhKgSyKtH7CvXsAJ+tczV2s1X2HdaHJD4BLB6P7+1V3vE4Rtouv0dWJX5bPPuNjR8/vg9y6PRFax0AvW90wBj3TgjEdmO/45fr2Z70LnRx8g5Ibt2JtEVR0+rVEMTSfgzgSv6cAW/c25LsKT+4trb+VpshTpkypUzjeADYOtNlx9a74j5iK0ZTYJJMwpMjp06d6skQanFB8SQgd4ZnAUBVEteHa47xKm9j52CgbEhcpwrP6tTnK5hsu/Dbs9YBaNy0/kIVGWG/oW/tJWPgkZJm9w1IkomABgfb+m7SJRWIQbA27e/A53p65HMmhcPhZRD5a8J6Ac4LBoMnWQpRmpqaH0Sy89RFbolEIumcAZCWf/zjH6uR+A6t/xdffDExxeTaRIFTbJW7NT7FqwkvED1+9OjRgRSTS9nRRx/dRT1sCG0Kh8PLkXiy5xDHcQ70Im8DzanfmJUOQM0tA3sr3F/afs6f5HWwJjrpLQ1SsboBgn8l2RJ3jN45tNDG95ORMhqtTX9LZvSyXY42lvkqJNtOVuVRx5mU9c2BQk7oxqS7NCo+DgR892Q7tm9KuKoCgLry40znOWnSpN0hsNU5a1XPvj3fBLA5wSW9S0u7Z3z3wtrahrMh6Gm7/B5RQOYnukDEZPw3NmHCpL0VONJ24bdnpQPgV/NTCHrYv8tP+OpR9/tdR3hVB2LwlyT5F9c3NubwLnKJKRBP9ztQSFk7sramurr6AwH+kOSyIoH7YvnE8mC24go5oet1y5nkiRm9eO7cufUpJOkpF5JkBzo9MhgMZvTuNB51b0YObo2+ZZc/fTbRNQK9yXGcjD0ynDx5cl9R/bntsntJNMkuh4pTQ6FQKFP5VaDCGOPegcSP37Iu6x2AjbcP7q7AuTa3+k315ZP4JO9qPl4pAjfhlsQiF2X7+8kUERSkvSWzT61PmmurxubGX0GRbAOVUlf0xdDE0BlexuI4TlFwYvmjCiQ/ilRQGQ6HrSz9+6Y+fXrOAfBpwotU7pkwYXJGVuo4TvmFEBxvu9ytFhW+B5Nc0svA/DETcyNGjx4diDbHHs+liWpeKOxS+Bcg8amv6uK+yZMnZ6Qe5gdf/pkAWev0pyrrHYCiWPR8ES3LgSH+5C/jerZ0q8sVqz+B4PnE+esxTb8ftEf6uVkg2i3tLZmhOTUhKxWvvfZaI4xOQ/KT5YpU8HAwGHqsvLw84486JkyYtL+BeQOpHW6zwuczZ1upsB2orKyMQ/XOJJcN8pnYP9L9Ax0MBk8S6B22y5xIJDJvIRQJT6ZT4MQN6zfchzTuMB3H8ZeVdXsIgpyaqOaFOXPmNENkepLLhkZbYnPHjRvXI528HKf8R9DMHy6UCVntAKhC1OC8HBjeT/El4+p+P7i1k6bSJnBvTRKDcY3+Oo0srND7Rgcg6J32IwCBx5u+eCMcDr+lwHlIZc96xeluXJc6TvmFjuOkfQCS4zj9g8HQdJ9x31AglSVi9Qp36rx58zancG3WqOhdgH6S5LLh0ZbYK+UTy9s8YXfq1Km+kBO6Bq7MRI7N/N9xfZjkj3AgPwpODD0zfvz4Nq9jHz9+fB+BzIHidNtlzZaiooJbACQ7kGjfgK9gYSgUOqCt6TuO43ec0I0CTbbyxpqsdgBa7tx5FAS72G/YU34Z8bd4NjRYfOXqhSKYk2Q1wCkNtw06LpvfU7oa6z7vD4HJQP032S5Le0Ui1X+C6m9SvLy3QO8WNR8EJwZ/5TjO0LbkVYEKEwwGxwad4IMC8yEU5yOV59mKFoieEIlE/mu7vr5df5EmRUoTsYa6oi+HnNAtoVBop1TSDgaDEzes/+KfCvwGYn8ztNTqY14E0KeTXig43u8LvOM4oR+m0qF0HKcoNDF0vt8XWAKId488c9CcOXNqRFOYGyMYqS5eDzmh68vLy/ulkLSUTyw/3MC8KcDPkKONP5DlSS/xuDsyd6tixwTmFADJhoraLQbfT7bONUiwlEf/WH/7rq93vfyjnDlEIhFjMNxNPxko0O5T5XJBeH64IhgMlUJxeUofEAwE5JcC+WXQCS2FSjWM+5aqb7nPp+tEpA6APxaLdTFqdnZFhonoIfP1ZSfZoTE7EIXR08Ph8Eu266k1kUjVMyEn9CcFfpjkUp8CV8DFpSEn9IILeVbE/W8sFlutqjFjupQEJD40LjrBACeopjQyknOisej5AX/gMECSzX3oJ8AjUHNryAk9DkVVTH1LXbdxAwD4/f5+IjIKrgkBepJK7uxMl23V86sfCTrlRwKa7LyOgAK/0Lj+NBgMPSsuZsfU/NeY2OexWCxeVFRUGothmIhOENUTXeietsuWiqx2AIpruj/b2G3TfIh6so7XGzq+/vaBB3S9fLUnW6OW/vjj9xr/MPB6BX6V4LJ+BrG5NXfv5JRd9NkXKSduiWuwJzT9E1tFkbfnIWyl4XD1j0NOqEaB69r42REQHQEVCFy4cWDbEwWBgQog0K3/q811XSsGJ1ZXh+farqBkXLgXC8zeAFLZmMuvwLECPRYq8Pu29aljcLHlNiz/ztf+ysKFCzc6jnOSqFRBkHyCrKCnApdCcKlP4vCZgq/eU2yZa0OIxprPDvgLRgBIZefRABRTVTDVJy4Ag4C/APGYu+XeVvPrN5bV4S+peK+l2Nd4DASLcmB4P+WXGGR8Tej2ijatvgEGryV+Hq57+eOYs/m2QXmwNlcOykS9q8GXtkuSCdWR6gqFfA+A9SV2AFYo3AnV1dU53/gDQCQSqQsU+P9PgPdtx5ILIpHI6zB6EpCf82Ny0cKFCzcq3O9A8bHtWLIt68+/5JIva2JRfAeCN2037G14ndRw506DPKuTCsQ0HjgBgtWJ49CDAn53Uf0dAzzbpjgzBdLDMlTvlzfdObBDzEiORKqejLtmDIB3rQUhmFlUXDg6F5/5JzJ37tx10Xh0IoBFWcjuXQGW2C5zIuFw+G8KOQZAreeZJTnpsqOIRCKfig8TALznfW7ybyhW2i4zYGkjoLIrV29oKiwKAViYA417Kq8AjF7iZZ10vfyjz13I/0HwZZJYBouRhQ13D7xKHxmc9qzxTGua3m93CIZkZORFUOYKZjfcPTCnts9srwUL5r2jcPdXyGXI7mjABwo5OhyunjZnzpy8fKzy8ssvf65wHS8bJAXmFBUXjlXoWtvlTSYSqfo7RMd7ODISh8gVMTeat3uRtFV1dfVHPr8Zq8BszzJR/KWktMtECDbaLi9g8SyAnueu3FxciCME+Jv19f6pvKAXNd4xcBcv66Tkks/eUuN+B6JfJImnCNDfNdY3L2u8a+AZetug4rbkowqpn97/yIZ7Bjxef8+AjK7/jrsyJcN1XwDgsfq7+k9JO7gcEIlEYpFI1R0KdwSg9wCernT4VIDLFe5ekUjVC7bLnq5IJFIXnl99siimIfFe7m2jqFHIRU5kwlH51EEKh8NvdS3tuh8EdyU5iKpNBHgHomPD4arbbJcx2+bNm7c5Eqk+BqI/ArApg0lvVMhZ4fnVJ86ePbsh/eQyw+oSGDl3dUNRv9XfhcgtOXCXn+xVrH73917XSdcL1/zLwBwGIx+kENMuavThpkL388bpAx6onz7wmLo/9N3hMhVVSN1d/fZuuLv/TxqnD1gqKi8A+J4A99dPz9wjBTFyYubrXgNi5Ommu3ca5nX9Z0skEvk0HAlf5A/4hghwbcbu5BQuoBEFzujdp9eQ6kj1HyKRSN4up9yR6vnVM4uKC4fIlomzm9NIqgmCB1TcUZFI1T0VqMhYI5ots2fPbgiHqy8xftlbgGeQ1hw0/QSqP95cu3l0OBz+p+2y2RQOhx8uKAwMgciNSGe0TtEA6D0Kd2QkUvUQcmyOoPW9r+UkxIHVP2m8p/87EPkjkMLsVovRNk4fcE/xBZ+/7GUuRRd9tnzj7YMPLC5oflgFxyX/hHYDcJaBnoUCHxqnD/gYwIcCWQdoQIE+zX/ESJ8PPXb46S0r9tPWcM/AnQU6ITOpfUupK/FKfWTwIXLGqg7ToG09/e56AL8NhUIHuS4OB1AuikOQykxvAFCsg8F8cRGOqf+FBfPnJttAJ+9tvVOvmDx58s2x5tgxruBUURwBQUHCDypcFSwC8FxBgf+BuXPnrrNdlkyoqqpaDGDqpEmTdonH9RSoTgOwbwofrYeiCkafrqmpqVy0aBEnF2710ksvfQng52PHjr2xoKDgOChOxZa9EpK1m3EF3hCRZ40PD1VVVefsyi1v/lS3U/M9A/aMG8wUaCo/XCsEeLOw15qDt3RcvNc4fcD3IHor4Mne3C0qcnWX8z7PyFBf4x8H/Bbw/BCR3xSfv+aXHueRCyQUCu0CYLjrygAAJYCWAIABNruQOhH3Q1VdFolEMjccnseOPvroLg01DaMUup+75djjElEpANCkgpVGdaW/0P/PZI3+2LFjS0XkW3/k/X5/NNFRyWPGjCn2+XytzstZuHBhVp/7Tp48uW+8Ob6viu4LoLeqbL0BcDeoyIci+r6q/jPJCJGMGzeu+47eGDBgQH1lZWVLNstk2+TJk7u2tLTsDfj2NdDdFFoCNQEVbTCKlWp05dY6TfhvcsqUKWW1tbXf2oGyS5cuLdk8kCunOgAAoHcOLWwuqLteBZchB0YodkhwXfE5a7K2Re/GRwZ3L2pp+jGASwFk6oS8sIG5oPDc1UszkZje2bOsuTDwkUK6e1wdzSK+fYrO+Wy5x/kQEXVoOdcB2Kb+voEH+MS9X1PbACTbYmqM0+Ws1a9kM1N9rF/XpiaZCuBMAOPQ9u/PVeBF48o9Red9/vdMxtZwf/+rBPhdNupBBJVFZ6/JubPbiYjySc52AABAZ8HXtLnfDwH5NYCBtuP5GsGqJl/R/j3OWLXJRvZND/fbXWMyAYKDBThUFUMg3xodcCH4WFz9L4Bqjcvs4vPXrMp0LPrI4KKmWNOHADw7OOmb5RJjRhb9aPWyLOVHRNTh5HQHYBt9rF/XxhY9XyCXAMjIGeCZIEBl4Y/WniySGzM7tQL+ul369whAS+PReGMXbNgg53q/Y1jjA32vhUh2Ty1UPFR89tqzsponEVEHkhcdgG20AqZ5UL8jVfALAIfYjgcAILix+My1Xk98y1lN9/cepj7fWwCyvSlRbVFpoJ+c9GleHxhERGRLXnUAttf44IAJMO40AMcDaPP515kk0AuKzlz3R9t1km2qkKY/9Y1AZYKV/CFTu5y55hnb9UBElI/ytgOwjc6Cr7muX9A1+K5AHShGWShXXESOL/rh2udt10c2NT3c91wV3GsrfxE8U/TDdVNt1wMRUT7K+w7AN9U8ulOvArflIBgz3HV1mAjOBeBLO+HkGgXu1KIfbvib7TrIhobH+h0irkaQ/aH/7W0o+sG6vrkyB4OIKJ90uA7ANzX9qc/tELksS9nFFXpO8Q/WP2y73F6qf6j3QJ/fvAFgJ9uxwNVhRWes51GxRERtZPUsgGwojOsvIfg0S+cF+ETkwabH+15pu9xe0VmDik1AnoVgpxw4nwHqlzG264SIKB91+A6A/GhDrQCXZvHkQAH05qbH+tyus5LsS55n9LF+XZubm58TwUHWT2fc8moURc4f3UpElIs6/COAbZqe6DMbwFHZzFMhb8CVU4q/v/ZD2+VPuyxPduvRogV/UyA37rgFy42rpxacvuFN26EQEeWjDj8CsI2K/yII6rI5PC2iB4vPfbP5yb7H2y5/Ouof7z2gGQXzVTDG9pA/BDEI7iiMmwPY+BMRtV+nGQEAgOYne5+mIk/YyFuAx6KQn5ZMW5dXQ9YNM/seZtSdAciulkNRKP4uaq4q/N7ad2zXCxFRvutUHQAAaJrZ+34AZ1vKfjMgvyzsv366BBGzXReJ6Cz4Wtzev1DFtbB7KmO9AH8VMbcUnLLuLdv1QkTUUXS6DoDOGlTc7Da9DmAfi2G8BTFXFZ287iXb9bEjTU/22x0m/igE4yxk7wJ4X4FFRuS5gi6BF+To1Q2264SIqKPpdB0AAGia1Xs4FP8GUGI1EMF/RHFzQd8NlbkwIlA7q3+fgBv9BUTOB7xfwaCCfxtXfg+BQN3mOHRtsfG9Kyetr7NdF0REHV2n7AAAQPOsnicrZGZu1IF8CLh3xGL+p2zMEdDnepe2NLmXqciVwLeOFPZKsxj34MITN76d7fISEVFONH72NFf2ukqB39mOYzsuVF4D3MooCmaUnrRmvZeZtczqPdo17jlQmYZsj4ao/LTopA03ZzVPIiL6n07dAQCAlsped6rgYttx7Cg0hb4uIgtVzSuFbuwVOWnj5nQS1DD8sfU9DnXFHAHBqQCG2CiYCuYXvvNFSCrg2sifiIjYAYBWwLTs3WsWgBNsx5KEC2AxgPdFZZUr+iFUVhnBZy58m6KCupKCpigANDcU9PIJBrg+3UnV7W9UdnON7i8q+8PyvAcF1mvcPbD4pI0f265QIqLOrNN3AACg6bk+QyUe54Ey3ou5aiYXn7AhbDsQIqLOzub67tzhut9hV8h7Cvyk+Hg2/kREuYAdAAAGeoyyA+AphUwvOvaLP9iOg4iItuj0HQC9D4EWg7G24+jQVJ8tbPnyEtthEBHRVzp9ByA6oNd+gNvFdhwd2NyCwMZT5FjEbQdCRERf6fQdAMA9iM//PfO3gpJuJ0pwY7PtQIiI6OvYATAYYTuEDknxQoFvIxt/IqIc1ek7AGowDKq2w+hQRHF3oGTT5blwvgEREe1Yp+8AALoTHwFkTFwFPy6csulO24EQEVFinb4DIEAfdgDSJ8BqKKYFpmyabzsWIiJKrtN3AGDAFQDpq/LHA9+TI9evsR0IERGlhh0AUR5Ik6ZAFFPlqPUbbcdBRESpYwdAwBmA6TKbG2yHQEREbcMOgIGyC5CWGvk/cKkfEVGe6fQdAAHqVdDDdhx5S7HOdghERNR2nb4DoKKfABhkO458JSLv2I6BiIjartN3ACD4GMAY22HkL/2v7QiIiKjtOn0HQCEfi2R1EsDTKvqBKI4EZF/b5U+fVtuOgIiI2q7TdwBE3MVZ2gjoS1W9sDBY99TW//5F48Ieu/hi0SMFMkWBwwD0sl0fbbTZr7Wv2w6CiIjartPvgde8oGSkqLznYRYKyKxYLHpFl/LGz1q9SCEtC0pGCOQwQPYHdC8AewPoabuOEhRtRsHEutNsR0FERG3X6TsAqjCxl0s3AijzIPlX4OInAaf2tXbH90pJ32jcDDZwd3FhdhbRvqLopUBPQLptvcoPoBRAEyBNgAYBmCxUXnlgYh0fARAR5aFO3wEAgOjLpc8DODqDSb4iwE3+8bWz7ZSn5DpAKrzMQ4APfeNqh4qAOykSEeWhTj8HAAAUeEFE0+0AfAboDBfyaOG4Oi8fKSTlH1f3m9irXQ+EylFe5eGq3uFn409ElLc4AgBA3+jaPxaVT9D2DtFSAcJq9C/+Q+urc+luWF9FcUxLXgIw3oPkP/W31O0hQTTZLicREbUPOwBbRV8peQ6CY1p521XIJwJdIYrlMPqKL65hGdew2nbciejC3qUx0/RXAOUZTVdwfsGYunttl4+IiNqPHYCtmt8oGSWujAUAKFqMaK2qbnYhnxVsrFuZr/vd64sojHYvfUBET89MgnjP363uABmFFttlIyKi9mMHoJNoea3kfBG9BUCXNJKJqdHDCg5u+Jft8hARUXq8XypGOaFgTN0f/a47DNC/QIB2vQxuZuNPRNQxcASgE4r9q+REuO6NKjI05Q8J3vZ3rz9Y9sjPRyFERPR17AB0Uqow8X91OVIF1wA4OMnlG+ISP7TowOYPbMdNRESZwQ4AoWVR8aFGZRqAkwH0/cbbTWo0FDigsd27GRIRUe5hB4D+R2fBhz26HOC6ElTRQ6DYB9Bf+Ec3zrIdGxERERERERERERERERERERERERERERERERERERERERERERERERERERERERERERERERERERERERERERERERERERERERERERERERERERERERERERERERERERERERERERERERERERERERERERERERERERERERERERERERERERERERERERERERERERERERERERERERERERERERERERERERERERERERERERERERERERERERERERERERERERFR7vt/Zb1Mgb55twcAAAAASUVORK5CYII=;" parent="1" vertex="1">
                    <mxGeometry x="508" y="274" width="140" height="70" as="geometry"/>
                </mxCell>
                <mxCell id="5" value="" style="shape=image;verticalLabelPosition=bottom;labelBackgroundColor=default;verticalAlign=top;aspect=fixed;imageAspect=0;image=data:image/svg+xml,PHN2ZyB4bWxucz0iaHR0cDovL3d3dy53My5vcmcvMjAwMC9zdmciIGZpbGw9Im5vbmUiIHZpZXdCb3g9IjAgMCA2OTMgMTE0IiBoZWlnaHQ9IjExNCIgd2lkdGg9IjY5MyI+PHBhdGggZmlsbD0iIzAyMEE0NyIgZD0iTTE2Ni40NDkgMzAuNDEyQzE2My42NjYgMzAuNDEyIDE2MS4zMDQgMjkuNTAyOSAxNTkuMzYzIDI3LjY4NDdDMTU3LjQ4NiAyNS44NjY2IDE1Ni41NDggMjMuNjU4OCAxNTYuNTQ4IDIxLjA2MTRDMTU2LjU0OCAxOC4zMzQxIDE1Ny40ODYgMTYuMDkzOCAxNTkuMzYzIDE0LjM0MDZDMTYxLjMwNCAxMi41MjI0IDE2My42NjYgMTEuNjEzMyAxNjYuNDQ5IDExLjYxMzNDMTY5LjIzMiAxMS42MTMzIDE3MS41NjEgMTIuNTIyNCAxNzMuNDM4IDE0LjM0MDZDMTc1LjMxNSAxNi4wOTM4IDE3Ni4yNTMgMTguMzM0MSAxNzYuMjUzIDIxLjA2MTRDMTc2LjI1MyAyMy42NTg4IDE3NS4zMTUgMjUuODY2NiAxNzMuNDM4IDI3LjY4NDdDMTcxLjU2MSAyOS41MDI5IDE2OS4yMzIgMzAuNDEyIDE2Ni40NDkgMzAuNDEyWk0xNTcuNjE2IDg4LjU2MTNWMzguMzAxNkgxNzUuMTg1Vjg4LjU2MTNIMTU3LjYxNloiLz48cGF0aCBmaWxsPSIjMDIwQTQ3IiBkPSJNMTg3LjAwMiA4OC41NjEzVjM4LjMwMTZIMjA0LjI4MUwyMDQuNDc1IDQ0LjUzNTRDMjA1Ljc2OSA0Mi4wNjc4IDIwNy42NzggNDAuMTUyMyAyMTAuMjAyIDM4Ljc4ODZDMjEyLjcyNiAzNy40MjUgMjE1LjYzOCAzNi43NDMyIDIxOC45MzggMzYuNzQzMkMyMjQuNTY4IDM2Ljc0MzIgMjI4LjgzOSAzOC41NjE0IDIzMS43NTIgNDIuMTk3N0MyMzQuNzI4IDQ1Ljc2OTEgMjM2LjIxNyA1MS4wMjg5IDIzNi4yMTcgNTcuOTc2OVY4OC41NjEzSDIxOC42NDdWNjEuMjg4NkMyMTguNjQ3IDU1LjM3OTUgMjE2LjQxNCA1Mi40MjUgMjExLjk0OSA1Mi40MjVDMjA5LjU1NSA1Mi40MjUgMjA3LjcxMSA1My4yNjkxIDIwNi40MTYgNTQuOTU3NEMyMDUuMTg3IDU2LjU4MDggMjA0LjU3MiA1OC45MTg1IDIwNC41NzIgNjEuOTcwNFY4OC41NjEzSDE4Ny4wMDJaIi8+PHBhdGggZmlsbD0iIzAyMEE0NyIgZD0iTTI1Mi44MTYgODguNTYxM1Y1Mi40MjVIMjQ0Ljc1OVYzOC4zMDE2SDI1Mi44MTZWMzMuNDMxNUMyNTIuODE2IDI1LjcwNDIgMjU0LjY5MiAxOS43MzAyIDI1OC40NDYgMTUuNTA5NEMyNjIuMjY0IDExLjI4ODYgMjY3LjYzNSA5LjE3ODI1IDI3NC41NTkgOS4xNzgyNUMyNzYuNTY2IDkuMTc4MjUgMjc4LjQ0MiA5LjM0MDU4IDI4MC4xOSA5LjY2NTI2QzI4Mi4wMDIgOS45MjUgMjgzLjUyMiAxMC4zMTQ2IDI4NC43NTIgMTAuODM0MUwyODMuODc4IDI1LjQ0NDVDMjgzLjE2NiAyNS4xMTk4IDI4Mi4yOTMgMjQuODkyNSAyODEuMjU3IDI0Ljc2MjdDMjgwLjI4NyAyNC41Njc5IDI3OS4zODEgMjQuNDcwNCAyNzguNTM5IDI0LjQ3MDRDMjc1Ljc1NyAyNC40NzA0IDI3My42ODYgMjUuMjgyMSAyNzIuMzI3IDI2LjkwNTVDMjcxLjAzMyAyOC41Mjg5IDI3MC4zODUgMzEuMDkzOCAyNzAuMzg1IDM0LjYwMDNWMzguMzAxNkgyODIuMjI4VjUyLjQyNUgyNzAuMzg1Vjg4LjU2MTNIMjUyLjgxNlpNMjg5Ljk5NCA4OC41NjEzVjkuNjY1MjZIMzA3LjU2M1Y4OC41NjEzSDI4OS45OTRaIi8+PHBhdGggZmlsbD0iIzAyMEE0NyIgZD0iTTMzNS45MzMgOTAuMTE5OEMzMzAuNDMyIDkwLjExOTggMzI2LjIyNiA4OC4zNjY1IDMyMy4zMTQgODQuODZDMzIwLjQwMiA4MS4yODg2IDMxOC45NDYgNzYuMDkzOCAzMTguOTQ2IDY5LjI3NTZWMzguMzAxNkgzMzYuNjEyVjY1LjY3MTdDMzM2LjYxMiA2OC42NTg3IDMzNy4xMyA3MC44NjY1IDMzOC4xNjUgNzIuMjk1MUMzMzkuMjY2IDczLjcyMzcgMzQwLjk4IDc0LjQzOCAzNDMuMzEgNzQuNDM4QzM0NS42NCA3NC40MzggMzQ3LjQxOSA3My42MjYzIDM0OC42NDkgNzIuMDAyOUMzNDkuOTQzIDcwLjMxNDYgMzUwLjU5IDY3Ljk0NDUgMzUwLjU5IDY0Ljg5MjVWMzguMzAxNkgzNjguMTZWODguNTYxM0gzNTAuODgyTDM1MC42ODcgODIuMzI3NkMzNDkuMzkzIDg0Ljc5NTEgMzQ3LjQ1MiA4Ni43MTA3IDM0NC44NjMgODguMDc0M0MzNDIuMzM5IDg5LjQzOCAzMzkuMzYzIDkwLjExOTggMzM1LjkzMyA5MC4xMTk4WiIvPjxwYXRoIGZpbGw9IiMwMjBBNDciIGQ9Ik0zNzYuMTIyIDg4LjU2MTNMMzk0LjM3MSA2Mi42NTIzTDM3Ny4wOTMgMzguMzAxNkgzOTYuNzAxTDQwNC44NTUgNTEuOTM4TDQxMi44MTUgMzguMzAxNkg0MzEuNDUyTDQxNC4yNzEgNjIuODQ3MUw0MzIuNjE3IDg4LjU2MTNINDEyLjkxMkw0MDMuNzg3IDczLjM2NjVMMzk0Ljc2IDg4LjU2MTNIMzc2LjEyMloiLz48cGF0aCBmaWxsPSIjMDIwQTQ3IiBkPSJNNDYzLjM4OCA5MC4xMTk4QzQ1OC45MjMgOTAuMTE5OCA0NTQuOTExIDg5LjAxNTkgNDUxLjM1MSA4Ni44MDgxQzQ0Ny44NTcgODQuNjAwMyA0NDUuMTA3IDgxLjU0ODMgNDQzLjEwMSA3Ny42NTIyQzQ0MS4wOTQgNzMuNjkxMiA0NDAuMDkxIDY5LjIxMDcgNDQwLjA5MSA2NC4yMTA3QzQ0MC4wOTEgNTkuNDA1NSA0NDEuMTU5IDU1LjA1NDkgNDQzLjI5NSA1MS4xNTg4QzQ0NS40OTUgNDcuMTk3NyA0NDguNDM5IDQ0LjA4MDggNDUyLjEyOCA0MS44MDgxQzQ1NS44MTcgMzkuNDcwNCA0NTkuODk0IDM4LjMwMTYgNDY0LjM1OSAzOC4zMDE2QzQ2OC4wNDggMzguMzAxNiA0NzEuNDEzIDM5LjIxMDcgNDc0LjQ1NCA0MS4wMjg5QzQ3Ny41NiA0Mi44NDcxIDQ4MC4wNTIgNDUuNDEyIDQ4MS45MjkgNDguNzIzN1Y5LjY2NTI2SDQ5MC4xOFY4OC41NjEzSDQ4Mi4xMjNMNDgxLjkyOSA3OS42OTc3QzQ3OS45ODcgODMuMDA5NCA0NzcuNDMxIDg1LjU3NDMgNDc0LjI2IDg3LjM5MjVDNDcxLjA4OSA4OS4yMTA3IDQ2Ny40NjUgOTAuMTE5OCA0NjMuMzg4IDkwLjExOThaTTQ2NS41MjQgODIuNzE3MkM0NjguODg5IDgyLjcxNzIgNDcxLjgzMyA4MS45MzggNDc0LjM1NyA4MC4zNzk1QzQ3Ni44ODEgNzguODIxMSA0NzguODU1IDc2LjY0NTggNDgwLjI3OCA3My44NTM1QzQ4MS43NjcgNzEuMDYxMyA0ODIuNTExIDY3Ljg0NzEgNDgyLjUxMSA2NC4yMTA3QzQ4Mi41MTEgNjAuNTc0MyA0ODEuNzY3IDU3LjM2IDQ4MC4yNzggNTQuNTY3OEM0NzguODU1IDUxLjc3NTYgNDc2Ljg4MSA0OS42MDAzIDQ3NC4zNTcgNDguMDQxOUM0NzEuODMzIDQ2LjQ4MzQgNDY4Ljg4OSA0NS43MDQyIDQ2NS41MjQgNDUuNzA0MkM0NjIuMjIzIDQ1LjcwNDIgNDU5LjI3OSA0Ni40ODM0IDQ1Ni42OSA0OC4wNDE5QzQ1NC4xNjYgNDkuNjAwMyA0NTIuMTYgNTEuNzc1NiA0NTAuNjcyIDU0LjU2NzhDNDQ5LjI0OCA1Ny4zNiA0NDguNTM2IDYwLjU3NDMgNDQ4LjUzNiA2NC4yMTA3QzQ0OC41MzYgNjcuODQ3MSA0NDkuMjQ4IDcxLjA2MTMgNDUwLjY3MiA3My44NTM1QzQ1Mi4xNiA3Ni42NDU4IDQ1NC4xNjYgNzguODIxMSA0NTYuNjkgODAuMzc5NUM0NTkuMjc5IDgxLjkzOCA0NjIuMjIzIDgyLjcxNzIgNDY1LjUyNCA4Mi43MTcyWiIvPjxwYXRoIGZpbGw9IiMwMjBBNDciIGQ9Ik01MjcuNTY0IDkwLjExOThDNTIzLjA5OSA5MC4xMTk4IDUxOS4wODcgODkuMDE1OSA1MTUuNTI4IDg2LjgwODFDNTEyLjAzMyA4NC42MDAzIDUwOS4yODMgODEuNTQ4MyA1MDcuMjc3IDc3LjY1MjJDNTA1LjI3MSA3My42OTEyIDUwNC4yNjggNjkuMjEwNyA1MDQuMjY4IDY0LjIxMDdDNTA0LjI2OCA1OS40MDU1IDUwNS4zMzUgNTUuMDU0OSA1MDcuNDcxIDUxLjE1ODhDNTA5LjY3MSA0Ny4xOTc3IDUxMi42MTYgNDQuMDgwOCA1MTYuMzA0IDQxLjgwODFDNTE5Ljk5MyAzOS40NzA0IDUyNC4wNyAzOC4zMDE2IDUyOC41MzUgMzguMzAxNkM1MzIuMjI0IDM4LjMwMTYgNTM1LjU4OSAzOS4yMTA3IDUzOC42MyA0MS4wMjg5QzU0MS43MzcgNDIuODQ3MSA1NDQuMjI4IDQ1LjQxMiA1NDYuMTA1IDQ4LjcyMzdMNTQ2LjI5OSAzOS44NjAxSDU1NC4zNTZWODguNTYxM0g1NDYuMjk5TDU0Ni4xMDUgNzkuNjk3N0M1NDQuMTYzIDgzLjAwOTQgNTQxLjYwNyA4NS41NzQzIDUzOC40MzYgODcuMzkyNUM1MzUuMjY1IDg5LjIxMDcgNTMxLjY0MSA5MC4xMTk4IDUyNy41NjQgOTAuMTE5OFpNNTI5LjcgODIuNzE3MkM1MzMuMDY1IDgyLjcxNzIgNTM2LjAxIDgxLjkzOCA1MzguNTMzIDgwLjM3OTVDNTQxLjA1NyA3OC44MjExIDU0My4wMzEgNzYuNjQ1OCA1NDQuNDU1IDczLjg1MzVDNTQ1Ljk0MyA3MS4wNjEzIDU0Ni42ODcgNjcuODQ3MSA1NDYuNjg3IDY0LjIxMDdDNTQ2LjY4NyA2MC41NzQzIDU0NS45NDMgNTcuMzYgNTQ0LjQ1NSA1NC41Njc4QzU0My4wMzEgNTEuNzc1NiA1NDEuMDU3IDQ5LjYwMDMgNTM4LjUzMyA0OC4wNDE5QzUzNi4wMSA0Ni40ODM0IDUzMy4wNjUgNDUuNzA0MiA1MjkuNyA0NS43MDQyQzUyNi40IDQ1LjcwNDIgNTIzLjQ1NSA0Ni40ODM0IDUyMC44NjcgNDguMDQxOUM1MTguMzQzIDQ5LjYwMDMgNTE2LjMzNyA1MS43NzU2IDUxNC44NDggNTQuNTY3OEM1MTMuNDI0IDU3LjM2IDUxMi43MTMgNjAuNTc0MyA1MTIuNzEzIDY0LjIxMDdDNTEyLjcxMyA2Ny44NDcxIDUxMy40MjQgNzEuMDYxMyA1MTQuODQ4IDczLjg1MzVDNTE2LjMzNyA3Ni42NDU4IDUxOC4zNDMgNzguODIxMSA1MjAuODY3IDgwLjM3OTVDNTIzLjQ1NSA4MS45MzggNTI2LjQgODIuNzE3MiA1MjkuNyA4Mi43MTcyWiIvPjxwYXRoIGZpbGw9IiMwMjBBNDciIGQ9Ik01OTEuMTU4IDkwLjExOThDNTg1LjY1OCA5MC4xMTk4IDU4MS42MTMgODguNjU4NyA1NzkuMDI0IDg1LjczNjdDNTc2LjQzNiA4Mi43NDk2IDU3NS4xNDIgNzguMTA2OCA1NzUuMTQyIDcxLjgwODFWNDYuOTcwNEg1NjQuMDc2VjM5Ljg2MDFINTc1LjE0MlYyNS44MzQxSDU4My4zOTNWMzkuODYwMUg2MDAuMzhWNDYuOTcwNEg1ODMuMzkzVjcxLjEyNjNDNTgzLjM5MyA3NS4yODIxIDU4NC4xMDQgNzguMzAxNiA1ODUuNTI4IDgwLjE4NDdDNTg3LjAxNyA4Mi4wMDI5IDU4OS4zNzkgODIuOTEyIDU5Mi42MTQgODIuOTEyQzU5NS43MjEgODIuOTEyIDU5OC45MjQgODIuMDY3OCA2MDIuMjI0IDgwLjM3OTVMNjAzLjE5NSA4Ny4yOTUxQzYwMS43MDcgODguMjA0MiA1OTkuODk1IDg4Ljg4NiA1OTcuNzU5IDg5LjM0MDZDNTk1LjY4OCA4OS44NiA1OTMuNDg4IDkwLjExOTggNTkxLjE1OCA5MC4xMTk4WiIvPjxwYXRoIGZpbGw9IiMwMjBBNDciIGQ9Ik02MzMuODMgOTAuMTE5OEM2MjkuMzY0IDkwLjExOTggNjI1LjM1MiA4OS4wMTU5IDYyMS43OTMgODYuODA4MUM2MTguMjk4IDg0LjYwMDMgNjE1LjU0OCA4MS41NDgzIDYxMy41NDIgNzcuNjUyMkM2MTEuNTM2IDczLjY5MTIgNjEwLjUzMyA2OS4yMTA3IDYxMC41MzMgNjQuMjEwN0M2MTAuNTMzIDU5LjQwNTUgNjExLjYwMSA1NS4wNTQ5IDYxMy43MzYgNTEuMTU4OEM2MTUuOTM2IDQ3LjE5NzcgNjE4Ljg4MSA0NC4wODA4IDYyMi41NyA0MS44MDgxQzYyNi4yNTggMzkuNDcwNCA2MzAuMzM1IDM4LjMwMTYgNjM0LjggMzguMzAxNkM2MzguNDg5IDM4LjMwMTYgNjQxLjg1NCAzOS4yMTA3IDY0NC44OTYgNDEuMDI4OUM2NDguMDAyIDQyLjg0NzEgNjUwLjQ5MyA0NS40MTIgNjUyLjM3IDQ4LjcyMzdMNjUyLjU2NCAzOS44NjAxSDY2MC42MjFWODguNTYxM0g2NTIuNTY0TDY1Mi4zNyA3OS42OTc3QzY1MC40MjkgODMuMDA5NCA2NDcuODcyIDg1LjU3NDMgNjQ0LjcwMSA4Ny4zOTI1QzY0MS41MzEgODkuMjEwNyA2MzcuOTA3IDkwLjExOTggNjMzLjgzIDkwLjExOThaTTYzNS45NjUgODIuNzE3MkM2MzkuMzMgODIuNzE3MiA2NDIuMjc1IDgxLjkzOCA2NDQuNzk5IDgwLjM3OTVDNjQ3LjMyMiA3OC44MjExIDY0OS4yOTYgNzYuNjQ1OCA2NTAuNzIgNzMuODUzNUM2NTIuMjA4IDcxLjA2MTMgNjUyLjk1MiA2Ny44NDcxIDY1Mi45NTIgNjQuMjEwN0M2NTIuOTUyIDYwLjU3NDMgNjUyLjIwOCA1Ny4zNiA2NTAuNzIgNTQuNTY3OEM2NDkuMjk2IDUxLjc3NTYgNjQ3LjMyMiA0OS42MDAzIDY0NC43OTkgNDguMDQxOUM2NDIuMjc1IDQ2LjQ4MzQgNjM5LjMzIDQ1LjcwNDIgNjM1Ljk2NSA0NS43MDQyQzYzMi42NjUgNDUuNzA0MiA2MjkuNzIgNDYuNDgzNCA2MjcuMTMyIDQ4LjA0MTlDNjI0LjYwOCA0OS42MDAzIDYyMi42MDIgNTEuNzc1NiA2MjEuMTEzIDU0LjU2NzhDNjE5LjY5IDU3LjM2IDYxOC45NzggNjAuNTc0MyA2MTguOTc4IDY0LjIxMDdDNjE4Ljk3OCA2Ny44NDcxIDYxOS42OSA3MS4wNjEzIDYyMS4xMTMgNzMuODUzNUM2MjIuNjAyIDc2LjY0NTggNjI0LjYwOCA3OC44MjExIDYyNy4xMzIgODAuMzc5NUM2MjkuNzIgODEuOTM4IDYzMi42NjUgODIuNzE3MiA2MzUuOTY1IDgyLjcxNzJaIi8+PHBhdGggZmlsbD0iIzAyMEE0NyIgZD0iTTgyLjYyODMgNzguMDQxOUwxMDguODU1IDcyLjAyODhDMTA5LjI1OSA3MS45NDcgMTA5LjY0MSA3MS43ODIgMTA5Ljk3OCA3MS41NDQyQzExMC4zMTUgNzEuMzA2MyAxMTAuNTk5IDcxLjAwMSAxMTAuODExIDcwLjY0NzZDMTExLjAyMyA3MC4yOTQyIDExMS4xNTkgNjkuOTAwNCAxMTEuMjExIDY5LjQ5MTRDMTExLjI2MyA2OS4wODI0IDExMS4yMjkgNjguNjY3MiAxMTEuMTExIDY4LjI3Mkw5OS45NTc3IDE5Ljg5NzlDOTkuNzU2NCAxOS4wOTk2IDk5LjI0NjYgMTguNDEzOCA5OC41NDAyIDE3Ljk5MDhDOTcuODMzOCAxNy41Njc4IDk2Ljk4ODQgMTcuNDQyMyA5Ni4xODk1IDE3LjY0MTZMNjkuOTc0MSAyMy42NTQ3QzY5LjE4MDUgMjMuODU4MyA2OC40OTk4IDI0LjM2NzggNjguMDgxIDI1LjA3MThDNjcuNjYyMiAyNS43NzU4IDY3LjUzOTIgMjYuNjE3IDY3LjczOTEgMjcuNDExNUw3OC44NjAxIDc1Ljc4NTZDNzkuMDYxNSA3Ni41ODM5IDc5LjU3MTMgNzcuMjY5NyA4MC4yNzc3IDc3LjY5MjdDODAuOTg0MSA3OC4xMTU3IDgxLjgyOTQgNzguMjQxMiA4Mi42MjgzIDc4LjA0MTlaIiBjbGlwLXJ1bGU9ImV2ZW5vZGQiIGZpbGwtcnVsZT0iZXZlbm9kZCIvPjxwYXRoIGZpbGw9IiMwMjBBNDciIGQ9Ik03My41OTEgMTA3LjkzNEwxMDUuMzg5IDc4LjQ5NTJDMTA2LjU4NyA3Ny4yODYxIDEwNi4yODUgNzYuNTQxMiAxMDQuNjMzIDc3LjEzNDlMODIuNzc5MyA4Mi4xMDA4QzgxLjg3NTYgODIuMzI0MSA4MS4wNDI4IDgyLjc3MTUgODAuMzU3NyA4My40MDE3Qzc5LjY3MjcgODQuMDMxOSA3OS4xNTc2IDg0LjgyNDYgNzguODYgODUuNzA2NUw3Mi4yMzA1IDEwNy4wMzhDNzEuNzc3MSAxMDguNjkgNzIuMzgxNyAxMDkuMTQzIDczLjU5MSAxMDcuOTM0WiIgY2xpcC1ydWxlPSJldmVub2RkIiBmaWxsLXJ1bGU9ImV2ZW5vZGQiLz48cGF0aCBmaWxsPSIjMDIwQTQ3IiBkPSJNMTUuNTc4MSA5OC4zMjYzTDYzLjE5MzUgMTEzLjA0QzY0LjAwNyAxMTMuMTkyIDY0Ljg0NzkgMTEzLjA0OSA2NS41NjU5IDExMi42MzhDNjYuMjgzOSAxMTIuMjI3IDY2LjgzMjIgMTExLjU3MyA2Ny4xMTI5IDExMC43OTVMNzUuMDkxOSA4NS4yNTNDNzUuMjA3NCA4NC44NTQ3IDc1LjI0MzIgODQuNDM3NCA3NS4xOTcxIDg0LjAyNTJDNzUuMTUxIDgzLjYxMzEgNzUuMDI0MSA4My4yMTQgNzQuODIzNCA4Mi44NTFDNzQuNjIyOCA4Mi40ODc5IDc0LjM1MjUgODIuMTY4IDc0LjAyODEgODEuOTA5NkM3My43MDM2IDgxLjY1MTIgNzMuMzMxMyA4MS40NTk0IDcyLjkzMjUgODEuMzQ1MUwyNS4zMTcyIDY2Ljc3MTNDMjQuNTExMSA2Ni41NDA4IDIzLjY0NjYgNjYuNjM4NCAyMi45MTIzIDY3LjA0MjlDMjIuMTc4IDY3LjQ0NzQgMjEuNjMzNSA2OC4xMjYgMjEuMzk3OCA2OC45MzA0TDEzLjQ3MjcgOTQuNDE4M0MxMy4yMzczIDk1LjIxNTcgMTMuMzI2NSA5Ni4wNzM3IDEzLjcyMDggOTYuODA1NkMxNC4xMTUyIDk3LjUzNzYgMTQuNzgyNyA5OC4wODQxIDE1LjU3ODEgOTguMzI2M1oiIGNsaXAtcnVsZT0iZXZlbm9kZCIgZmlsbC1ydWxlPSJldmVub2RkIi8+PHBhdGggZmlsbD0iIzAyMEE0NyIgZD0iTTAuMjAyODE2IDQ2LjA0NDJMOS44NTU0NSA4OC4zMDgxQzEwLjE1NzggODkuOTU5OCAxMC45MzUyIDg5Ljk1OTggMTEuMzU2MyA4OC4zMDgxTDE3Ljk4NTcgNjYuOTc2NEMxOC4yMTE2IDY2LjA2NzUgMTguMjIwOCA2NS4xMTgyIDE4LjAxMjcgNjQuMjA1QzE3LjgwNDUgNjMuMjkxOSAxNy4zODQ4IDYyLjQ0MDQgMTYuNzg3MiA2MS43MTkxTDEuNTYzMjYgNDUuMjg4NUMwLjUwNTEzNiA0NC4wNDcgLTAuMjgzMDU1IDQ0LjM5MjUgMC4yMDI4MTYgNDYuMDQ0MloiIGNsaXAtcnVsZT0iZXZlbm9kZCIgZmlsbC1ydWxlPSJldmVub2RkIi8+PHBhdGggZmlsbD0iIzAyMEE0NyIgZD0iTTM3LjQzMTUgMC44NjU0MjFMMC45NTg4MzMgMzQuNjIyNkMwLjM3MzY5MyAzNS4xNzk2IDAuMDMwMTUwMiAzNS45NDM2IDAuMDAxODkxNjMgMzYuNzUwOUMtMC4wMjYzNjY5IDM3LjU1ODEgMC4yNjI5MDkgMzguMzQ0MyAwLjgwNzY3MyAzOC45NDA4TDE5LjA0NCA1OC42NjRDMTkuNjA2IDU5LjI2MDEgMjAuMzgwNiA1OS42MTAzIDIxLjE5OTQgNTkuNjM4NkMyMi4wMTgyIDU5LjY2NjkgMjIuODE1MSA1OS4zNzEgMjMuNDE2OSA1OC44MTUxTDU5Ljg3ODggMjUuMDAzOUM2MC40NjkgMjQuNDQ5OSA2MC44MTYxIDIzLjY4NDkgNjAuODQ0NSAyMi44NzZDNjAuODcyOCAyMi4wNjcgNjAuNTggMjEuMjc5NyA2MC4wMjk5IDIwLjY4NThMNDEuODI2IDAuOTczMzc1QzQxLjU0NiAwLjY3NTM4NyA0MS4yMDk1IDAuNDM1OTc3IDQwLjgzNjIgMC4yNjkwNDNDNDAuNDYyOSAwLjEwMjEwOCA0MC4wNjAyIDAuMDEwOTc0NyAzOS42NTEzIDAuMDAwOTMxNTdDMzkuMjQyNSAtMC4wMDkxMTE1OSAzOC44MzU4IDAuMDYyMTM2MiAzOC40NTQ3IDAuMjEwNTM5QzM4LjA3MzYgMC4zNTg5NDEgMzcuNzI1OSAwLjU4MTU0MiAzNy40MzE1IDAuODY1NDIxWiIgY2xpcC1ydWxlPSJldmVub2RkIiBmaWxsLXJ1bGU9ImV2ZW5vZGQiLz48cGF0aCBmaWxsPSIjMDIwQTQ3IiBkPSJNNzIuNjg0MyA3Ny4yODYyQzc0LjM0NzEgNzcuNzM5NiA3NS4zOTQ0IDc2Ljg0MzYgNzQuOTUxNyA3NS4xMjcxTDY0LjQwMjkgMjkuNDYyNkM2My45NDk1IDI3LjgxMDkgNjIuNTg5IDI3LjM1NzUgNjEuMzkwNSAyOC41NTU4TDI3LjAzNDEgNjAuNDY3QzI1LjgyNDggNjEuNjY1MiAyNi4xMjcxIDYzLjAxNDcgMjcuNzc5MSA2My40NjgxTDcyLjY4NDMgNzcuMjg2MloiIGNsaXAtcnVsZT0iZXZlbm9kZCIgZmlsbC1ydWxlPSJldmVub2RkIi8+PHBhdGggZmlsbD0iIzAyMEE0NyIgZD0iTTkwLjYxODEgMTMuNTkzNEw0OS4wMjc1IDAuODY1NTkyQzQ3LjM3NTYgMC40MTIxODYgNDcuMDczMyAxLjAxNjczIDQ4LjQyMjkgMi4zNjYxNUw2My42NDY5IDE4Ljc0MjhDNjQuMzI5OCAxOS4zODExIDY1LjE1NTggMTkuODQ2NSA2Ni4wNTU2IDIwLjFDNjYuOTU1NCAyMC4zNTM2IDY3LjkwMjkgMjAuMzg3OSA2OC44MTg3IDIwLjIwMDFMOTAuNjcyMSAxNS4yNDUxQzkyLjI4MDkgMTQuNzkxNyA5Mi4yODA5IDE0LjAzNiA5MC42MTgxIDEzLjU5MzRaIiBjbGlwLXJ1bGU9ImV2ZW5vZGQiIGZpbGwtcnVsZT0iZXZlbm9kZCIvPjxwYXRoIGZpbGw9IiMwMjBBNDciIGQ9Ik02ODAuODMxIDMzLjIwNjZDNjc4LjU3NCAzMy4yMDY2IDY3Ni41MjggMzIuNjcxMiA2NzQuNjkyIDMxLjYwMDJDNjcyLjg1NiAzMC41MjkzIDY3MS40MDMgMjkuMDc1OSA2NzAuMzMyIDI3LjI0QzY2OS4yNjEgMjUuNDA0MiA2NjguNzI2IDIzLjM1NzkgNjY4LjcyNiAyMS4xMDE0QzY2OC43MjYgMTguODQ0OCA2NjkuMjYxIDE2Ljc5ODUgNjcwLjMzMiAxNC45NjI3QzY3MS40MDMgMTMuMTI2OCA2NzIuODU2IDExLjY3MzQgNjc0LjY5MiAxMC42MDI1QzY3Ni41MjggOS41MzE1NiA2NzguNTc0IDguOTk2MDkgNjgwLjgzMSA4Ljk5NjA5QzY4My4xMjYgOC45OTYwOSA2ODUuMTcyIDkuNTMxNTYgNjg2Ljk3IDEwLjYwMjVDNjg4LjgwNSAxMS42NzM0IDY5MC4yNTkgMTMuMTI2OCA2OTEuMzMgMTQuOTYyN0M2OTIuNDAxIDE2Ljc5ODUgNjkyLjkzNiAxOC44NDQ4IDY5Mi45MzYgMjEuMTAxNEM2OTIuOTM2IDIzLjM1NzkgNjkyLjQwMSAyNS40MDQyIDY5MS4zMyAyNy4yNEM2OTAuMjU5IDI5LjA3NTkgNjg4LjgwNSAzMC41MjkzIDY4Ni45NyAzMS42MDAyQzY4NS4xNzIgMzIuNjcxMiA2ODMuMTI2IDMzLjIwNjYgNjgwLjgzMSAzMy4yMDY2Wk02ODAuODMxIDMxLjA4MzlDNjgyLjcwNSAzMS4wODM5IDY4NC4zNjkgMzAuNjQ0MSA2ODUuODIyIDI5Ljc2NDRDNjg3LjMxNCAyOC44ODQ3IDY4OC40OTkgMjcuNjk5IDY4OS4zNzkgMjYuMjA3NEM2OTAuMjU5IDI0LjY3NzUgNjkwLjY5OSAyMi45NzU1IDY5MC42OTkgMjEuMTAxNEM2OTAuNjk5IDE5LjIyNzIgNjkwLjI1OSAxNy41NDQ0IDY4OS4zNzkgMTYuMDUyN0M2ODguNDk5IDE0LjUyMjggNjg3LjMxNCAxMy4zMTggNjg1LjgyMiAxMi40MzgzQzY4NC4zNjkgMTEuNTU4NyA2ODIuNzA1IDExLjExODggNjgwLjgzMSAxMS4xMTg4QzY3OC45OTUgMTEuMTE4OCA2NzcuMzMxIDExLjU1ODcgNjc1Ljg0IDEyLjQzODNDNjc0LjM0OCAxMy4zMTggNjczLjE2MiAxNC41MjI4IDY3Mi4yODMgMTYuMDUyN0M2NzEuNDAzIDE3LjU0NDQgNjcwLjk2MyAxOS4yMjcyIDY3MC45NjMgMjEuMTAxNEM2NzAuOTYzIDIyLjk3NTUgNjcxLjQwMyAyNC42Nzc1IDY3Mi4yODMgMjYuMjA3NEM2NzMuMTYyIDI3LjY5OSA2NzQuMzQ4IDI4Ljg4NDcgNjc1Ljg0IDI5Ljc2NDRDNjc3LjMzMSAzMC42NDQxIDY3OC45OTUgMzEuMDgzOSA2ODAuODMxIDMxLjA4MzlaTTY3Ni43NTggMjYuNjA5VjE1LjAySDY4MC42NTlDNjgyLjExMiAxNS4wMiA2ODMuMjIxIDE1LjM0NTEgNjgzLjk4NiAxNS45OTUzQzY4NC43ODkgMTYuNjQ1NSA2ODUuMTkxIDE3LjU0NDQgNjg1LjE5MSAxOC42OTE4QzY4NS4xOTEgMTkuNDE4NSA2ODUuMDE5IDIwLjA4NzggNjg0LjY3NSAyMC42OTk4QzY4NC4zMyAyMS4yNzM1IDY4My44MTQgMjEuNzEzMyA2ODMuMTI2IDIyLjAxOTNMNjg1Ljk5NCAyNi42MDlINjgzLjU4NUw2ODEuMDYgMjIuNDIwOUg2NzguODIzVjI2LjYwOUg2NzYuNzU4Wk02ODAuNDg3IDE2Ljg1NTlINjc4LjgyM1YyMC41ODVINjgwLjQyOUM2ODEuMzg1IDIwLjU4NSA2ODIuMDU1IDIwLjQzMiA2ODIuNDM3IDIwLjEyNjFDNjgyLjgyIDE5LjgyMDEgNjgzLjAxMSAxOS4zNDIgNjgzLjAxMSAxOC42OTE4QzY4My4wMTEgMTcuNDY3OSA2ODIuMTY5IDE2Ljg1NTkgNjgwLjQ4NyAxNi44NTU5WiIvPjwvc3ZnPg==;imageBackground=none;" parent="1" vertex="1">
                    <mxGeometry x="189" y="253" width="235.82" height="39" as="geometry"/>
                </mxCell>
                <mxCell id="6" value="" style="shape=image;verticalLabelPosition=bottom;verticalAlign=top;imageAspect=0;aspect=fixed;image=data:image/png,iVBORw0KGgoAAAANSUhEUgAAARgAAABVCAYAAACSP/uKAAAAAXNSR0IArs4c6QAAAARnQU1BAACxjwv8YQUAAAAJcEhZcwAAEnQAABJ0Ad5mH3gAABs9SURBVHhe7Z0HeBVV3sZf0ishhJCQkAKE3quwiCAg0m0gn+K3gq6sZXV1dT87i+5adtfVXV2xrF3s2BdEBBXphAChSm8hjYRAeuc775kzZHJJwr3JnRvU83ueeebMuXPnTi7Me//tnNPitAAajUZjA15qr9FoNG5HC4xGo7GNFnv37dcukkajsQUdg9FoNLahXSSNRmMbWmA0Go1taIHRaDS2oQVGo9HYhhYYjUZjG1pgNBqNbWiB0Wg0tqEFRqPR2IYWGI1GYxtaYDQajW1ogdFoNLahBUaj0djGT2ewY0UhkLUGKE4XWwZQpPZluUBgNBDErV1NO/pCwCdIvVmj0TQH57fAZK4WorIKSFsGHBObq7QfB8RNANqNANoMVJ0ajcZTnH8CU5IF7H3b2HK3qk430Ko7kHQN0PNWwD9CdWo0Gjs5fwSGYmIKC0XGkdCOQMIkIDgO8GtpbL5hhhtUfMxwmYrEnu1Te8X1UtUbHWjZCeghRIZC4x2gOjUajR2cHwKT+jdg/b3qwELkICB+snBzxgNtL1CdTsJYzbFvgfTvjK3goHpB0bq3ITLdb1YdGo3G3TSvwBQeNoRl/weqQ5EwFeh8HdBxuupwAzueB3bOB/J2qg5Fl+uBUW+oA41G406aT2AOfWqIC90Zky6/BrrNAaKHqw43w0zUTiE0O4TQFB5RnQJaSpOFleMbojo0Go07aB6BOfARsOxqdSDwDQWGPCFclttUh4WcTUCbAerATZRkAmvvBva9qzoEjMdckSxcp16qQ6PRNBXPF9o5ikvsGGE9LKtbXAgFxhnW3KEaTsBamdHvAN1vUh2CqlJgYW9hUe1RHRqNpql4VmAcxYUxlklCXCKHqI46cFZgtj9X+9rOMOJlYOA8daD4oKtwpQrUgUajaQqeExhmchzFZeyH6qABclJUwwkoYF9NNNLVzjLwT8DEJepA8fVU1dBoNE3BMwJTXQ5sfFgdCJwVl+z1wHEhMNw7y9GvgCWTgfKTqsMJ2l8KjPtMHQjSvwdW/04daDSaxuIZgUmea5T9E9afjHjJaNeHFCRhWSy9EjhdZexT/270O0PuFiDlEXXgJImXAb96Vh0ImNZ29RoajaYW9gvM4S+FOPxVHQgGPAT4h6sDByqLhMWSbGR3itKMYjnCPetX9r4jrJkNxnlWTv6oGoK2Q439tn8ChyxWiTP0ut3YTCgyBYfUgUajcRX7BWbTo6oh6PYb4R41EIj1CQYiBwNdZgEjXwVGLzD6uR/1OtB1thCQIcZ5VlhTY9Ljt6ohoAXiiqtEaMXwHkjpcaM4T6PRNAp7BWbPW8Ii2Wi0g2IM68UVkmYC8ZOMfUMcVJYK62najTJqaghdpc2q7QrWlDmL8vJ2qAONRuMKNguMsDpMus8BQhLUgQuE91CNemCW6bhwm0jMxUBoItDvPsPSIRznZMZ/nIXDB3gtQneMIqPRaFzGPoE5+ImRjSG0XqxFba4Q3lM16uHwf1VDwEGRJj0tWSCKjKtYrRi6SY6DJTWaOqjIOYic9/+A42/fgrIjm1XvT4/TFaXIW/KU/Dvyf3hV9bqOfQKz28F6ocg0hoYsmPJ8YSW9abRDOxgDJE06/68x4RQ5/IUQu2+NtrN0uKq2YB1brhru5eixdGzasg1FRcWqR9NUTpeXoGjrYhRuXIjydIfBrXVQeTID6U+Px+H7klC0yRLPawTVhbkoTPkYBevfR+WJo6r3/KYsbSuOPjoYR+b2QdkhI6RxuqoCJTuXyb+jdN8a2dcY7BEYDirMUNYL4yKNtV5IQwKzV4iLaVl0nml8lhWrFWMKkSuYAkU49YObKS+vwMefL8Yrb72HbTstmTBNk6gqPoncj+5F9hs3oSjVYuHWQ9mhZJQeWI8qisPGj4VKVKlXPMvpqnJUncpCVX62R++heNsSVGTvk4JYlLpI9boHewQmc6UhMoSxkMZaL8QxY2TCwOtOVU/j7Q8kWawXk4QpNWlrBpzzDxhtZ0m4TDUE6e63YI6kHcPxnFzEx8ViXfImKTgaz+PXvg98IzuKp8Eb/h0GyX1zUH5UWBJ/GYJjfx+DSoqMhwjsOgrewa3Rwi8Q/gn9Va97sE9gTBoaZ9QUls2oye70/T+gVVej7QingDBxdV7fluI/XfQIo10i/sE56bgbWb9xMyLbRODS0SNxLD0TxzIy1SsaT+LbJhFxf0pBx2dz0OqSO1Wv56HlRffO0wR0HIKEv+5Hh6fTEdzPvcNk7BGYjFWqIWirakrcyUe9asSl913AIEutjSNJ16qGoDETh1snvUr7RjWazqn8AuzbfxBDBw9Aty5JiGgdji3bdDr8l8zp8mIZ+/g5Yc98MC+3UA3BzDQgOFYdNBFW7H41oaa6lmOIHAcq1sXi8UIcvjYqiK8/oTqdhGnwT4TZTBg4vli4Wm6ALtEXi5firttuklbMoq+XY+OmVPzh9jkIDTl74qsVq9fJ/v59euLAoSNY9t1K7DtwCEXFxQhvFYapE8dhyMB+aNGiBTIys/CNeH3X7r1SyAIC/DF4QD9cMWU8AvyFOyngP3tm1nGsWZ+MneK8nNwT0kULDAxAYnwcrpo6EbEx0fLc4uISLFq6XO4bYtSIYUiIay/bvD7vk3/XoSNHUVJSipDgYCR1TMTk8WPPXNskdftOnDyVj5HDh6KwqAir1m7AhpQtwoU0/r3iYtvh8snj0SVJWJXnQAZt/zEOlXlpCJ90P8InCAu3AaqF5ZD31d/EPg9BfacguM9E9YoRF8n//mWc+m6+vC7xadUOYRffguCB03Bq+XMy4xI29nZhCXWQQdKM569CdUk+on7zJvwTB8v3FqV8fOb93qFtET7+HrQccYP4nqpRuncVSg9uRFHqlyhP2yZclSAE9bwEXsJlIf4Jg9DyohvrvJcWPv7wi+mOsFE3i/u5Ei28fWUsqWD1myhM/hAVOYdwurLszLn+8X3RZsbT8Iutyc4y83VqGf+OErQcOUec0x/VpQXInD9dxqZCBlyJtjc0LpPkPU+g2u6j4LAxY9wgcWkuG9JUqsQXxFSxdRAjJ/2e7uQvfsYPxrQPnPOl203Ge11h69PGnjPedbvRaDeBqqoqLFqyHO3FQ0MLhqIQFBiI1es2Iq59DKLaRqoza1j+/Ur8uGefFKYfhNh06pCI4cMGoU/P7igoKMR3K9dIcfh2xSp8tuhrYRG1xvChgzGwf2+EhYZitRCSnNw8cX43eHl5SeF5/j9voLS0TF5j2JAB6N+3F+JiYrBj126sWpeMJPEZ4eGtUFFRib3C2uK+LhhH2r5zN3r16Ipoce+V4u+jeL7z4adS/MaNvgiD+vdBh8R47Nm3H0uWr4Cvrw86JMTLv52kbN6K5JRUHDx8FO9+9Jn8rGFDBsr3dRaiQjFduXq9vEabiNbyPfVRXVqIgrVvi30+AruMQGDnhmdIrCrKw4lPH5bZEr/ormfO5wOd8+7vcVI8fLymCdslP34ns1Sl+9eiImsPQvpNEcITg6qT6fLB5kNddSoTJ758VF7X+v7T5UUo3rUcPq1j4ds2SX5G4Yb3jeAuEVZMReZulB/bLjcv/xAE9ZlQ614YL/EOaYPqskLxmRmoKjiOEAqMEJGcBbfj1IqXpNDUChaLdmXeMRRt/gwBnYbBJ9z44a/M3o8Tn88T4piCoO6j5XdwurJc/B0fyfP92nVHcH9LPNIFfNTevbCs3x0wQ8TxR/sWCOtlt+oUcALwy9epAycIiVcNAafodMWisgao8/erRtPIyMwWv+pp+PU1V515wNpFtxWWQ3us25CCnt26wNv77EAj33fVZRNxwaD+UiRMBvTtjfmvvIlPvvgKl44ZiZkzrjxjqRBaLwEBAfh+1VpkZh9HbLtohLUMxdx776x1HZN+wkp69sVXsWLNenTskICgoEBMv1yIex3Q2njuxdfkPfXsbsTBKBYrxGf9+pppZ6wqkxHDhmDx0m+lZRMXG4OunTupV4QHm5GJhPhYPP6n+xAo7tdKL3Htf73wKtaI78f6Hjsp3PABCjZ8KH76vRA2+jZpCXkFhEjhKdn1HXIX3idEIQstfGu+aytlR1MROvRa+V7fiETZV7xjKY6/fasQtRMoTPlUiMI0RM1ZIB7oCmGZvCAtIlpIUXPehXfLKPkeWjKl+9ejcNNnUkAir/0XQgZfLe7L+F6rCnNQkbFbWi8UkQAhkMEDLkNA0q+kCEmERVl2ZBOyXpklLbv8H15GQIfBZ65hF67HYDgIkQV05lZmcTm49IjZf2qf0cfXredb1zpiHMXsPyH6K5UJzsGNq24FFvY1pnkwxYXTWnKCKFfEhVgFJl/dlyMNTTJligyXUzGzY00geXOq/GXvmFhT2UxBoQVxQPyC557IU7216d41Sf6qO4qCn58vOnfqgJahIbhQPMBWcTHh63RbzHobPvR1iQuhy0Y3KVe4TbRw6oOWCtPshMLnI/4GukLf/bAGPbp2ltaHVVwIP3Pc6JHSlaII0Zoz6ZBA12zSWeJCWgtLim7Sue7JXVSXnEL+SvFDKVyYwM4XorVwtSgupIW3H4J6XYrWlzc82j5y5r/R5uqnpOskH2SxBfUchwBhVREZc6mulCJAUTGvLz5Aigv7ZH9QK+m+0RWjaxPUW7j8lu+V76eotPAV35uXt3S9GKw9Iy5EnO+fMPCMJVJ5Ik1aP3bjusC8Ewf89+KabaVa9oMDCz8WgmD2f9DZEBC+bj2f5/DczFVGsNbsp5iYQwu+nSlcohdqP/Sd/ge4cqMxQZSrWAWGAxjroqGZ87gkrYmrqW4H+ADu3rMfvYWrQpfGSnfxUAb4+WHrjl2qx334+vqKH7dqtxX0UayWCleHrtGMK6fK+Aqhu3Q8NxcD+vWu0wojpiDSiqOr5gwNCaId0DUwC+VCBk+XLomrtPCuw0EQf4dfdBd14DyMy9BCKT+2Q9at0CJpDF6BLoYHmojn/sVq0Ygvp/yUsIbq/mU/J+WW91nFwkqDU3Na7tfZOWnqYe+Bg8g7eQp9e51dQEgLJEk8eBs3bZVC5AkoFIWFRTLAyu1cgVyTjcINYqD56iunSDfKhNbX6erTMgbUEDHRUdIScVZgPE3lyXRpxfCh9g6rHZBuMl6uRyYCOl4gN8Z2st+6GUcfGYD8Va/Xiu04wqK9oi1fyFhR8falRmDYw0WErgvMTKHqXOLD3Ea8aPTTsrgqtaZ/xl5jHBFft57Pc+jmcHH66dtr+qeJ/i6zjWtxQm6OBbLGSjhT3RfCtOTkU65iFab6iv4amprTOgVnfQLlBHyYt27fhdCQYKSlZyB505Za20bhOgUHByE7J8cjNTEMGs997Cn88eG/4P55T8jt7gcfxe/vndugFcWM06IlyzD24hHSDWoMYWEtZXbrfMVMGctgqnBRmhuvgFC0nfUfI8Ml3CBmhzjmicMbct67S2atTBhcznh2Kg4/1ANZr1wvK5ozX5yBI+KY2TJP4rrABLcXPz+jajZ/yy9VhPjPZvaHJRl9fN16Ps8xoQCZ/a1Fv48yQykCw/8NXC3+k496E0i8wugnnPvlfXVtZ6klMPUIxPF6LBjOqGddyjao8b9mfDB3/rgHBYWFMsvy6ZdLztqSU7bIuASzRRQku9i9dz9een2BTPv+/S8P4YVnnpDb/Kcfx58f+iOSOnZQZ9aGltVb7y1EdFRbjBszUroujYHfQVl506xBO/EKCpcxDVoInqyqbQhaUlFz3kHC47sRPukBme6mRZO/+g2j+jcvTVpdWa/fiJI9K4U7FIbWU+ci5q7FiL75A0TOfM6oVPYg9rhI3wtL5I1wYKVl8qfGwLFFrMQd94lh5ZjixGyOtdbmXBRaBp3VZcHsehk4KcSsrrl/rdZLQCQda3XgOoxX+Pn64oF77pCZkvq2KRMukTUsdFnsgMK1el2yzCYxO2TGTwgFo2VoKIIc4kOEQd0PP/1S3te0yyfJoK4jtMBIcXHDsR7GghhTYTzmfMQ7JEKmhxnkZar4fIL3Fj7hj0h4bKcUHJb5cywRxxGV7F2N0v3rpDhGzX4FrcbdJVPSQb3GIXTYdQjqcYm6imewR2AOCUFgvQofXFdm+G8IWjl0r1jsZuKsyJgVvAERxmbC7NS319UI4WdDjeVPGO8xcZN7xCI2FpMxxsJYS0N065yE8ooKaWXYQVlZOU7knZSZLFfcFNbfUCRnXTu93loUZqAYvN6zv/7pLShwLMKLimyDiPB6pk9tZpj58Ysx4mRMV9MlcYRZnWZFuErBvSecyUqVp201xFCIIjNIvu26y/7mxB6BCbOMCzIng3IXrKTtcYs6EDAT1RDMZJnDCuKnGHum0BnTSVtqjDGywnO5VjaXWWFK3hwVTlp1Uw3X4cBGxlUc60LqgjUxHRPiZSVrhRAad+PtTcvBT4qeNU1sUlJaivyC2sHDAwcPy6yRY1DXkVZhLWXNyqYtW2VGqS4OCnFJ3bZTZprO1zgMYy9hY34n604qjh9A5r+vQMH696QbwsK5rNduQPbbt6qz3QNdGsICwcoTlqWNBSykY/2NI1VFucJ6MX6IWLTHjRi1MbXjaMxAFW3+XB05T3VZQZ2f7Qz2CEzcpaohyE5WDScoNsqfz8mF88VTeJHRpiA0tOCadR6XBFUsxvgQK4w5wfckITJ97jb6Ofcvg9Kcv4Yz2jHexEnLTZKuUQ3XSd22Q/5as7jsXJg1MZwrJis7R/W6D6asWXW7a88+YZWslyJWXV2NrOM5eP/jL2Tgl/EiE1o7jLv06NZFlvqbGSfHjdeheF46dpT4DD88//Ib0grjtQldrBQhPJyegiI6bPBA2W8neYuewIHfhde7Zb9Wf2V2UI+xaD3lIUNkhAXDArkjD/dG+j8noXj7EqNQzY0EsjBOuDsM2PIzDj/YHYfv74r0Zybg1Pcv4uBdMTg6r7+8Z04ExX3aY8Ol1cLR4MEDrkBA4iBpfdG6ynp1FrJevg7Zb87B0UcGIe3Ji6RYOgODyqzgJcU7vsGRB3vg+ALXl/KxR2CYITJxxYI56sS4IpOL365ZR5oLrnE4QF3wNcJgs2nBODL0KcMFc5z7l5ZO1lqj7RNUewIqF2AqdtuOHzFoQJ+zal/qgzUxwYGBsijPDi4aPlRW1S78fBHu+L+5uO3uB/Hok88IQcvGnbf8Br+6oCYYyPunRbN2QwoeeOTJMxknx43uE2FR3O9vvgGRwgVi9S2vfctd9+P2ex7Ca29/ICt+b73peqe/i2ZDiCWtmNh7v0fLC2eLh7iTHPfDAGvc3BQ5Hsmd+MX2QsRVj8sAM9PJzAbREmHtin9cP/i0bCuFrnDTJ3IiKO6rCrLFa30R9dt35ahwn4h4RF7/kmxzPFHR1kWy5J+VwxGXz5PFf6xMdoZW4++WxXmEww4aMxDTnsGOnGlugfil5ny2DNTO+LHu4Kojq4VFMfw5deAE+98HliurgpNacSlYK0cWGeOXCMXDXKWgLrjQGjNXVhiPMde87nqDsdLBzwzWopSWGZWxwUGB0rpxJ7z+wcNH5JACacG1j3H7ZzQXhSmfIPv1G+EdFoWYOxdJAXIL4pGk6yP8V3iFhIOVwyYcmFmeuUe6UF4BQnji+8E7lMkHB7dbCBQHMfJc//a95TgpxmwaA4WK0KpxFXssGA4mjB1ttFmNu+s/RvtcuBoQZnUvN8IxS47DALi+kol1Os26qGvmPMZpTNp7NvruKRgDYdyEmx0PPq9Pa4zjoRi7+bmIC0WgZPcK2fQJi6ldlt9UhFjwehQuq7gQDhvg/C0hg6bJzJC3sGrOEhcixITxGNbN+LSOa7S4EApLY8SF2CMwpNsc1RAwm2QuolYfx74xaly4YJor9FYTBFUWGyJjwiCtKTBMdZ/LvXEUmIMf1wgMC/6s02dqfhEwFsK6krpgXIKjkgnHBpkBWk1t7HGRTLiIvBkkHTiv/nFEHOz47bU1Qd7rhCXjjEtlsrA3cGK7EZidrObOZdUvxzt5iV+Ay9cCbQYY/fXBMUqsczH5r7DAKFJk8GNA/weMtuYXA8vss16dLSyUKOGKDBAiYvyKlx3divIM4fafrpYjlqN/+64WmHqwz4IhjlZMgSWCzblZGNTlwEcOdrRmkBYIi4H9fJ3nnYuYMcaegV66SRvuN8SF9L7j3OJCrOLCCcJNcQnrDPR0bzpS89PAp00ifKOSUMkxPVsXycAqN7lSgXBLQodfL8TlPS0uDWCvBUOsVkynGcCY9402hYOWC6tnU4R14wgtHs77wuwOp2loiEPCVF2qhhOMfA1YcYPRDusiLJrlRrrZFT4dArlGNhn2TI0bpvlFwsAq1ziSEzgJWEnrnzio0XGJXxL2CwxXVVx8Cc7M9TL0H0CfPxhtEwrNitk1U2G66iKxaphDEwjXlaY4UJTGC2GLHWv0O8sPwur6UQWlI/oBV2wQdt7PJDCp0XgYe10kEj0cGPJXdSBIfqDGfTGhlXKRcKG4/AgtBlfEhfhZRrualseFz7suLhvn1ogLYQGeFheNptHYLzCEFbNdZxltzq/LSajM8n2TWGHlxE10jztC94p1K65AS2vTn9WBoN+9505tazSaBvGMwBBaMRF9jbYs77esa2TijtUHKCyuznrHaTC/sFQfx08W9/ukOtBoNI3FcwIT2NYIwJrTV9YlMs5kexoiYarharkCM0+vW4J1XOOasRuNRtNkPCcwhALCMURcn4hQXJYIUeDoZdLIsT6SNv3Ftd+ES/O1sKjvy5HqQMD7uqZpc+5qNJoa7M8i1cWRxUb6mrPFmTCzNPhxI9DbGDi1grPp6NxUYOs/gL1C7Ey4guPYD9WBRqNxB80jMIS1K1yShBW4JhyF3eceILFxizydExbh7ZgvtudRa/LuIU8A/e5TBxqNxl00n8AQluczNbxTTRxuwpL/rrNrz17XFDhz3b53DGGxruNELnrFLas1ajSas2legTHZu8AQGq7kaCVykBCb0YbguBqfYXznwEJjwqnMlarTQpdZxhAAFuZpNBpbOD8EhhRnArtfB/a8VrMqpBX/CGPKBKa6OR2Er9jMffExoCjdmO6B7bxdtbNTVhhr6SGEhcV9Go3GVs4fgTFhTQqFhlvuZtXZRLwDjbgOXa74iapTo9HYzfknMFZYoyK3Fcbe1VUV6Vp1nAZ0EFZLoGW0tEaj8Qjnt8A4wkGRnNaBk1dZ94FRNVsQ99FA5BAtKhpNM/PTEhiNRvOTwrOVvBqN5heFFhiNRmMbWmA0Go1taIHRaDS2oQVGo9HYhhYYjUZjG1pgNBqNbWiB0Wg0tqEFRqPR2IYWGI1GYxstdu3apYcKaDQaGwD+HyVZzUyvqp+DAAAAAElFTkSuQmCC" parent="1" vertex="1">
                    <mxGeometry x="519" y="137" width="280" height="85" as="geometry"/>
                </mxCell>
                <mxCell id="7" value="" style="shape=image;verticalLabelPosition=bottom;verticalAlign=top;imageAspect=0;aspect=fixed;image=data:image/png,iVBORw0KGgoAAAANSUhEUgAAAMAAAABCCAYAAAABpNnUAAAAAXNSR0IArs4c6QAAAARnQU1BAACxjwv8YQUAAAAJcEhZcwAAEnQAABJ0Ad5mH3gAABWeSURBVHhe7ZwJfEx318fPZLJIkCD2IPa91tipWGorRUttpZZqq16eVltVTymKohQPQtFqqdrLa9/V2sdO7VvsIQkpJYms857fufc/c5NGm4nQ9p379cln7jJ35i7/c87vnPMflgsXL9nIxMRFsdgYfdnExOVw019NTFwS0wBMXBrTAExcGtMATFwa0wBMXBrTAExcGtMATFwa0wBMXBrTAExcGtMATFwa0wBMXBrTAExcGtMATFwa0wBMXBrTAExcGtMATFyaTDGAyLu/0fiQNRQZ9UDf8my4FnaXpny9gR5GP9K3mJg4xxMbQEJCEo0LWU1rtx2hf49fQg8ePpvBGHXvIX009gdasf4AzZi/mRKTkvU9Jibp54kMIIkH3Zdz19OBY5dk/czFm/T20K/p6s07sv60OH76GvX+YDbduBUl62u3HqXvf9wtyyYmzvBEBnDk5GXavPMXWa5eqRjl9felazz4Bw7/jn45c022ZybJNhvtO3SehoxbRHd/fUBFCuamMsULyL4la/7L331Xlk2eLjGx8fQoLkFf+2eT4R/F3/stmjq9M41vRhwVLZSHvhrXh8Ij79M7n8wTTZ4taxaa+ElXqlC6sH7Ek7Ntz0n6fMZqiotPoNy5stOssX0Ip//mkLn06/1oyp0zGy0KGUhZPD30I0wym10HztKUOevJw8OdxgzuRCWL5pPtsY/iaf9RTQmA4Drl9CWNE2evs9N6KMuFC+SiEvpxfzUZjgDLWXtj8FssRH26BJOPtxfly+MnxgASE5Po3KXbspwZYKCHXotg2ZUk6+VKBlCuHNn4O3NQt/b1ZNsdvsEwEpOnw62IezTsi2VS7AgL/5U+Hr9YZDDA4B42can9LzULWKKqfRt3Hte3/vVkyACQcK7ffkyWG9QsS8G1y8vyotU/08lz12X55ZY15A/89iCWkpIzlqQiyY6OgaFZqHenYGpQS/Msu9kTbd1zQgywU5s6VLZkQdmOpDg52fyfXp4GiOw2m+M5Rt75jeITEvW1fyYZMoAV6/dL6dPL0526ttO874PoWFq18aAs16leSgYrOHziMvV8fxZNn7fZ7i3SS1x8Io2Zvop68fGXroaT1epGg99uTWVKaLr/u+W7KYEjDejatp4YycUrt2nvoXOyzSRzCSyUWxwecHOzUI8ODcg7i6es/1Nx2gCQ/CDhBAXy5WQNmF/kyeQ5GzgviBEp1L9HMzYODymJfjlnnRjLcjaa8TOh39PnMe7zZw3lEAtJg9D7JetOaH/kFm91ayrGcPN2FH3/4x55f/XnisnDQEazlM/PWWMDuDYkeI/LiuDtoln2ORNhkLhDKkIjOwPuE45Ld4rGntkWHUW2+7fJFvOrrGc2nrru/3L4azRlRA/q2fF5fU/mg2eNyJ+cQeWQXpxOguFh3/74a3lAg/q2ovYtaoge7PHuTDlpeIgxg1+V9743coFEAAU8dInAvDRtVE8ZyI8DBtOfk+nbkffsg5GVDrVrEcTf+aIM7tcHzaSrN+5Qvtx+NG/SW5Q9mzdN/WYjLV+3n/w5GZ474U1JlFNzPSyKFq/eJ8swmF6vNpTvmzF/C50PDZPvK5Q/Fw1680V7goeEf9aCbbT/2EXObZLJN1sW6snHNW3wnJxXWiAHWscyceWGA3SXE3S8L4+/L3V8sTY1b8jHQbulAZzItHmb6NAvoWI8ufyyUt+ujah+Dc3zpkXSuR0Uv2UiJUex/MTAt7iRW96S5NnsQ7IWr6O/KyVTv97ABq1Fz46ta9lzN8VXC7eJdAWtGlWhCmUKyfLcxTvo13vRsoxIX79GGQr5bgtF8D3ctteRf730QnV5bVyvAm3fe4oT5IsUfue+bCsZmI/Kly5ETXhfNXZcRiCh5y3dyeMsXByNp4eVmtavSD3Y2LKyc81srCMYfTldHD15hbbvOyUefti/2ks1AH0AbINXHs2DP4dvVr6QG/T14p/kGNzA5sGV6cTZaxTBuvHU+RtUuVwgDyRv2W/kwuXbNHzSMilp+mX3pvfeaCXeM4yjwPWwu9Sobnny8/XhcJyHNv10nOLYK8Po8uTypaIBuWkFD7j4+CRqXLdCmgZw+XoETZm7gc6F3hIDgkdHdMH22EcJEgXwMHfw9RQJ8Kebt6JoyOeL6djpqxIdsP8+D4w9B8+xBn5ANSoXl+s2gvd+Omk5rdl6mKJ48OMY/CFRRO7y8+ELVLiAPxXIm0M/QgOd7QHDvqXjfDyuGcegurVtzynprdQPKpPiu2z3wihu2SCK3/qleH5KeMSWFyev2Jd4bBUl3wkla2B1snhl1Y/SGM7nh+eA+9CgVlkK4GhuZFzIGjrCzgv7K5UrQqWK5ZftX8xaRwePX5LthQrkomoVi9Fn/1lJpy/clP0K7McfjluwYrd4cwXuCfZBypYvpRkWGpuTZq+nEHZEeM7q+vF8TrBRrN5ymKwsu8qWKMjyK0PKPU2c/iQMbHhJeHLIHXCAbwgCCWrygTwIwU8/n5Ztftl96APW7Z3a1LYnxSfPaheUOvjAs3+/co9Ue8Db3ZvSi02q0shBHST84iYePB4q+yB58vMAQpJ8mL0lwDoiQmJS0u8eSFo8jHnEcu5niuGb7eXlwcZs1fdw4v4wVgbJyCk/ikFgH96jPDfOFQP8oP7dCgzyTyYspbOXtGgC3K1W/nPcaux7f/T3MgAVuBej+Lsg94C7O3+foZz73yMXxEDsJPIAWTyAEk9tZJ2leXKBvb+dpARKPPojPVr+Qcr3ZDJWHpD4MwJDxR/ul3pVuOnb8AqQx41mI9q087g9p8Mg9+B7oEA0msGR5pslmlPNLJw2gIucjILCBf3lFZxiowAVyzhq/rv2n5XX5g0ryYXAa67eckS2QT68/VoTuSnQrUlXDrHoeyg3Zfi7L1PrJtXkfd8u2yW6Gx6/VtWSsm2T3ngDqpZ8mKOSAmVRcObSnxuAohsn8jPH9BZpBo+mgIyBDq9aoShNHfG6vKcfG6VxMBsHMYzmrSFz+FpjZB0PsWfHhqyXu9Nk1sx9uzSSwgFQU0ji9ZwInv4cGwbIwob2+UedKWRML+rTOZiy+nhxtH2ZirPTEdhY4taN4vt2QFtn3PKUIK8OE8m79wLK8soX5OZfVN/DdnB+J8X/NF1fy3xGfdCRhg5oq69pTP6Ur5n/gmuXk9fypQL0PUTBHMWxDZEbhj9z/la7YwN1g0rT+KFdaOrI1+kz/mwk3wqU3yGPMgunDSCME08APQswSK7f0jyTMopw1u7Q7+C5sppRwOM/4AHi4+1J7ZoFcfKRTAn7f6CYCXUpdlZ7ip5QjxJPbyIrG0XXdnXFo6CxtoclA6jAmhGcYc8eG6cllAH5csnrhVBHvyFXDi3UX09nVxj68s1uTSRU4zv69Wgq0UaRkz/vsw9flevAe9o1D2Jp5HggEbquBYf4IYazxAMY6GM5YcQArlw+kKrwX48Oz9OI9zrYPfuV65G0dvtRWfZwdxcHAFBmjoz6TSLa63zM/Mn9RGsrH2p7eEfz/DrWUs+T94AN5F6hBVn8CpC1Uhvy7reKrEU0R4K8IGHnLDnuaYB7o6SMAk4DfxgnePVlOavAjAG1D4WSnftP63tYLjeuSuM/7kK12eHhc4PrsLEM704FdYkGaTR2+qoMl9VT47QB3NO9m5+u3+9EPbBXRXJywgYuX3fc6LwsScB+DuEAPQN49OSoqxS/YQzZ4rSECpEgfs0IssXepwBOQlXSdfTUVXnFNoALD7utGVcuTnYBPC4ScJDNR0uuoSn/DIRgJFd6JBby+vuJB1Y04VwCuYgCiXPe3JrxA+hUxdHTjkhUrEheqlVNi1pG6tcswx6ulL5GbODn5P5l58S6Ncs9AKfyxay11Pv9r2jrnpN2Z6NIvn+LbA80mQg8m3/EJ3KfYkNeotjpbShmchN+UwJ5tR1NFg/t3G2cFyRHXJTlvxNoqkXedcwihvNLDa4fBRf1nC5djUjheJ4Epw0ADwdYdX1mbIQozRYd65gRCk+IQRvNCSRQ4QylOltcyunTyfBQCVrloYgeTSANgI+3Y1A+Yi8AvAyeWlU0rFbtLqn1P8Kbo1E2lhdGPD2tUuNWFNSjjBHkNQpjSTQ8wvFQEE2MUskISscKyCbkLKBfjxc4qS4hy5AGqJqMnrqS3v9soRQHFLZIHsgqwWCs+ctQwtEVlBwZSrb4aE6Ab3I03UyWHCw7vHXj4RxAyqM6Rk1u/Cw7xs9/zHVkBlduRMq1AnwPEuu0QATI4qX3HPj99+5rjvhJcfrK1DwbaFjgaUjUEvQHaT9RBgbixomZ0r63wjXvbfHKzhaTsgpkycIPy10bkLdZ/gBVLn0U5zA0T6WjdWMEKoFFmRIYvfjjsHJyinMzAullHBw+Pr9v9OC4tLDxv3RhGFyGYShlvknDulH3l+uL7sc+lEJRdRk2cVmKaGPExu+0GD4TGAe7Bu83XJe7u+O60+rmGqeXq/v91MEpprgjKUmx5/FvcwqnDSCrPiBRngKoU6sBo+rGynsDSCTsVvXerXtPSvXFLXcx8qzbiy9EPwU3d/JsPJAsPjkkvKGUCCqVLSKvtyK0B4rvKpBPS3SVzIGRKMNUDSej5nwc6bmHzpTcjNHizMWwFAZq5GzoLX2Jo4mvt1R8FLi+vl0b09wJfalzW4ccQNMPzUTglo8llJvjmOSwk+RevRNZi9XUt7Bz2DWbEg8tEUkpWN3JktVxfsaaOgoUqYkxRHF/P01qPg2KFc5jrwZBKVwLSztPQWUwVncAuEe5MumcnDYANIkAmkcA3kHVs/GQAMIYJqqB0xe0ykbbZtVFP2M+yYYdx/iBeJBniyHkUaOz7PdsPpg86rwu3mzp2v0itZBTNNRnFaqyZonAfHadrxJtbFOgxgxUOfZZUqVCoL7ED+xquPRHjKVeyKW9B89JH0DRsFY5+wCA18U+NBkLFfCnd1gSoVGn+PmIpuEtvgXIkl2vCDHxWyax90wi77dWUNZPT5JH1XYshTgv2jCWLUEbyIi4brk1eQXQN1Gg3o9Io0DzEj0RAAcQyIP0aYFejTHHwVwupS4UaLRO/3az/V6iGGHMw54Epw1AaXg0KxSq/Hn6vDZIYaH1gkrL8uZdx+Xmoj7/SkvNQ81csJV+WLVXBoQlm/Z5br75ZNDjJ47wdMoTwlMh9KOTCJo2qCivAMkQQE9AoYyilEFnPytQqkVHGuCc0dCb+NU6mceExs/kueult6DyqKI8sFo21hJfsHDlHho6fgkNGrVAKmuIZugZKFQybsnmT+6V2sgySLqwi2KmtaJ4HvBJ53ewe+d7mipyeTZ9T45TlC/tKEuiU4umJX7Lgf4NavIKdMPTalhmFtmzetPztR1Tp1Et7D9snpRFcT6yrs8KAKjQoTSK8ZEZOG0A6Ariu0OvhYunAkGViskJoSau2t1ogWMbOr9zFm4XI+jctg7VqlJCLByt9ndHzieLtx8shpLcvanPh7Np5caDYhitGlWWEiUGy9hpq6QJhgiiDAsD6gYbIeSDMgBIIpROkUxV1MuvzxIfPr9ZY3vbvRNq/HiAPQfNojf42lZtOmTX22giftSvjT1RhoHPXbRDEmLMne/6P9OpxWvj7NECBYYudklkIa9mH5J72Sb6OgeAB5EUv3MmPVo0gBL2zOVw4ph75Ja/HHlAbhpoGVyF76eez/E9nr98F3UbOENyDchWxSutHLLqaYCx9CY7OvVc8exR6oYTwPmgGmY8H+RHKA9nFk4bAGrgqFljWgA8ByhXKkAeEB4u5nEgVGGw4uLA/24+JMkvqidffNKN2jStJpaMaRVJ7qioWOgBpxSYjuCdxUvC/pD+beUzTnFU2c2yAeA70FXFTZo8Z70YVQ5fH3v/AU0SdGjhsdKaBvEswP0ZN6SLhPW0vBS2BeTPSbPHv5GicQgjRq3fWDlSsgTbWjaqQhX1XojgkYW8ukzXdD/LyTRx95SGWHLEeUo8sY6txCFz0FSbMLTrY707nk+HVrXEUJ42KFgMf/cVcaSqkpgayN6BvVtIEzUzcXoyHMJy5/7TxNuWLl6AZn3eR+ZoDB6zSCaL4YZ2bV9PZmTiPajODHqjFbXgB6geLgYwBjtq/C3zXCfbyg8ovsu3tC/ClyqXLyJ5hho8qO9jugJCNI5DvvES5xNYR3To+GItGtCrhXRsX31nqiTiKEHOGN0rzfIdcpcd+7TGCypTmKNkrBjhM9dtP0pxetWpZtUSv5sohqrM5WuRsozBXI8HbmpQ3sSENmh+zDly43MpyvKxflBZqlS+sMyXSg1ygGOnrsj5nb98m3MDLUlsVFebNJbm4ODEMekK50y/rKGky/uln2LJ6k/WkvVEJlkDnqP4rVMoYd83lKXPQrIGBukHavaApBPnCN2PiXjefC/KlgyQ3AsGl9qI13P+9lD/jw8go5QRI7dTvxEBr7aprS9pYA6UqgBiDhCag6nB88V8sd0HzsnvyyEj4chQGq5Zubg4urScypOQoZ9EYj4GPD0GTsiY3pKUYGB1fzckxaQndH0Hc5hvUs+h21OTdHYbxS7oSz79V5Nbwce/b+na/9JX329LUbLLnTM7LZzWX+SE9lvhxRJ9PhnYXqZgmOgkJ0lCnHRxD3n3YtnJ+ZaJhtMSCHR/pYHIGVgosnaAkI82tgL7Z4/rK7My/xCvbJoQTNUTSA3C8YShXUQWKbqxHlQT8patY+/Hgx9e4gVDomzCuFnJq9W/yb1cU3q0ZACHGoeTcnUyZAAIxS05SQX4fefhX7Q5/0hQEA1EB3/cWSpGfxayLGIAbmTxdHRX0wLd2WrPFacRgzqIsQVVKs4Gp+nTjT8dF7kBkLRl5nTZ/zfwPfZ84X2ylgqm+O3/kahgkkEJBNCpfW3gdKkElSlRUDQ3NDW0IBoaxukCf0Ty3asUO+UF8vn4gDTB0gMaZegzoAKE6cdvDZkr1SckSstm/esPf2xjYqP4LZOlEeletb2+zXXJsKvMn8dPtDYS2/Oht2h8yGqpwGDwpXfwA0cESH+tGRPsMPiRIKNmjcGPfGTKyB7m4P9TLBwJBvGrjZJvn9E2uTBPpBVQ/ahfs6zIHHh+NSPTKfBLJcz/0ecAOUN0TLwkxfj+ts2CqDTLL5P04V71ZUqOvEy2WK0y46pkWAIpkAij2YPfBj+uhvtnxIS0I593VulrzoF+xKpNB6lj69oZ/n6XhR+97d4NsuR89k3DvwtPbACZQdzaUeTVeri+ZvLswRDI3Pr6P4W/RbnEGqj/csnkL8I1Bz/4exhAEe2/0DAxedb8LSSQiclfhdkxMnFpTAMwcWlMAzBxaUwDMHFpTAMwcWlMAzBxaUwDMHFpTAMwcWlMAzBxaUwDMHFpTAMwcWlMAzBxaUwDMHFpTAMwcWGI/g/f/m9hjFPYywAAAABJRU5ErkJggg==" parent="1" vertex="1">
                    <mxGeometry x="657" y="282.5" width="154.18" height="53" as="geometry"/>
                </mxCell>
                <mxCell id="9" value="Python" style="text;html=1;strokeColor=#d79b00;fillColor=#ffe6cc;align=center;verticalAlign=middle;whiteSpace=wrap;rounded=0;fontColor=#000000;" parent="1" vertex="1">
                    <mxGeometry x="553" y="361" width="79" height="45" as="geometry"/>
                </mxCell>
                <mxCell id="10" value="" style="endArrow=classic;html=1;fontColor=#000000;strokeColor=#005700;strokeWidth=4;fillColor=#008a00;" parent="1" edge="1">
                    <mxGeometry width="50" height="50" relative="1" as="geometry">
                        <mxPoint x="702.3658536585365" y="545" as="sourcePoint"/>
                        <mxPoint x="723" y="375" as="targetPoint"/>
                        <Array as="points">
                            <mxPoint x="709" y="477"/>
                        </Array>
                    </mxGeometry>
                </mxCell>
                <mxCell id="11" value="MQTT&lt;br&gt;PUB" style="text;html=1;align=center;verticalAlign=middle;whiteSpace=wrap;rounded=0;labelBackgroundColor=none;fillColor=none;fontColor=#FF0000;" parent="1" vertex="1">
                    <mxGeometry x="722" y="379" width="60" height="30" as="geometry"/>
                </mxCell>
                <mxCell id="13" value="" style="endArrow=classic;html=1;strokeColor=#FF3333;strokeWidth=4;fontColor=#FF0000;" parent="1" target="9" edge="1">
                    <mxGeometry width="50" height="50" relative="1" as="geometry">
                        <mxPoint x="668" y="354" as="sourcePoint"/>
                        <mxPoint x="553" y="312" as="targetPoint"/>
                    </mxGeometry>
                </mxCell>
                <mxCell id="14" value="MQTT&lt;br&gt;SUB" style="text;html=1;align=center;verticalAlign=middle;whiteSpace=wrap;rounded=0;labelBackgroundColor=none;fillColor=none;fontColor=#FF0000;" parent="1" vertex="1">
                    <mxGeometry x="629" y="376" width="60" height="30" as="geometry"/>
                </mxCell>
                <mxCell id="15" value="" style="ellipse;shape=cloud;whiteSpace=wrap;html=1;labelBackgroundColor=default;fontColor=#FF0000;fillColor=none;labelBorderColor=default;strokeColor=#0000FF;" parent="1" vertex="1">
                    <mxGeometry x="147.91" y="175" width="318" height="186" as="geometry"/>
                </mxCell>
                <mxCell id="18" value="" style="curved=1;endArrow=classic;html=1;strokeColor=#FF3333;strokeWidth=4;fontColor=#FF0000;" parent="1" source="9" target="15" edge="1">
                    <mxGeometry width="50" height="50" relative="1" as="geometry">
                        <mxPoint x="503" y="425" as="sourcePoint"/>
                        <mxPoint x="553" y="375" as="targetPoint"/>
                        <Array as="points">
                            <mxPoint x="553" y="425"/>
                            <mxPoint x="431" y="410"/>
                        </Array>
                    </mxGeometry>
                </mxCell>
                <mxCell id="20" value="" style="curved=1;endArrow=classic;html=1;strokeColor=#FF3333;strokeWidth=4;fontColor=#FF0000;exitX=0.8;exitY=0.8;exitDx=0;exitDy=0;exitPerimeter=0;" parent="1" source="15" edge="1">
                    <mxGeometry width="50" height="50" relative="1" as="geometry">
                        <mxPoint x="469" y="364" as="sourcePoint"/>
                        <mxPoint x="519" y="314" as="targetPoint"/>
                        <Array as="points">
                            <mxPoint x="414" y="350"/>
                            <mxPoint x="459" y="358"/>
                            <mxPoint x="469" y="314"/>
                        </Array>
                    </mxGeometry>
                </mxCell>
                <mxCell id="21" value="DATA Source" style="text;html=1;align=center;verticalAlign=middle;whiteSpace=wrap;rounded=0;labelBackgroundColor=none;fillColor=none;fontColor=#FF0000;" parent="1" vertex="1">
                    <mxGeometry x="409" y="305.5" width="60" height="30" as="geometry"/>
                </mxCell>
                <mxCell id="22" value="&lt;span style=&quot;font-family: &amp;quot;Ricty Diminished&amp;quot;, Ricty, &amp;quot;Myrica M&amp;quot;, &amp;quot;Migu 1M&amp;quot;, &amp;quot;Source Han Code JP&amp;quot;, SFMono-Regular, Consolas, &amp;quot;Liberation Mono&amp;quot;, Menlo, Courier, monospace; font-size: 14.4px; text-align: start; background-color: rgb(255, 255, 255);&quot;&gt;&lt;font style=&quot;&quot; color=&quot;#f91543&quot;&gt;HTTPS&lt;br&gt;POST&lt;br&gt;&lt;/font&gt;&lt;/span&gt;" style="text;html=1;align=center;verticalAlign=middle;whiteSpace=wrap;rounded=0;labelBackgroundColor=none;fillColor=none;fontColor=#FF0000;" parent="1" vertex="1">
                    <mxGeometry x="409" y="400" width="138" height="66" as="geometry"/>
                </mxCell>
                <mxCell id="26" value="spresense&lt;br&gt;LTE拡張ボード&lt;br&gt;&lt;div style=&quot;text-align: start;&quot;&gt;Lora Add‐onボード&lt;/div&gt;" style="text;html=1;strokeColor=none;fillColor=none;align=center;verticalAlign=middle;whiteSpace=wrap;rounded=0;labelBackgroundColor=#FFFFFF;labelBorderColor=#854747;fontColor=#f91543;" parent="1" vertex="1">
                    <mxGeometry x="677" y="635" width="290" height="79" as="geometry"/>
                </mxCell>
                <mxCell id="27" value="&lt;font color=&quot;#000000&quot;&gt;json&lt;br&gt;&lt;b&gt;&lt;font style=&quot;font-size: 14px;&quot;&gt;{ID:100,water:0,…｝&lt;/font&gt;&lt;/b&gt;&lt;br&gt;&lt;/font&gt;" style="shape=note;whiteSpace=wrap;html=1;backgroundOutline=1;darkOpacity=0.05;fillColor=none;strokeColor=#0a0a0a;size=28;" vertex="1" parent="1">
                    <mxGeometry x="744" y="413" width="195" height="59" as="geometry"/>
                </mxCell>
                <mxCell id="28" value="&lt;font style=&quot;font-size: 13px;&quot;&gt;&lt;font style=&quot;font-size: 13px;&quot; color=&quot;#000000&quot;&gt;Influxラインプロトコル&lt;br&gt;&lt;/font&gt;&lt;strong style=&quot;padding: 0px; margin: 0px; box-sizing: inherit; color: rgba(0, 0, 0, 0.87); font-family: YakuHanJPs, -apple-system, BlinkMacSystemFont, &amp;quot;Segoe UI&amp;quot;, &amp;quot;Hiragino Sans&amp;quot;, &amp;quot;Hiragino Kaku Gothic ProN&amp;quot;, Meiryo, sans-serif; text-align: start; background-color: rgb(255, 255, 255);&quot;&gt;sensor,device=SPRESENSE ID=100,water=0,lat=35.12345,lon,135.1234,…&lt;/strong&gt;&lt;/font&gt;&lt;font color=&quot;#000000&quot;&gt;&lt;br&gt;&lt;/font&gt;" style="shape=note;whiteSpace=wrap;html=1;backgroundOutline=1;darkOpacity=0.05;fillColor=none;strokeColor=#0a0a0a;size=28;" vertex="1" parent="1">
                    <mxGeometry x="286" y="452" width="337" height="59" as="geometry"/>
                </mxCell>
                <mxCell id="29" value="" style="shape=image;verticalLabelPosition=bottom;verticalAlign=top;imageAspect=0;aspect=fixed;image=data:image/png,iVBORw0KGgoAAAANSUhEUgAAAgAAAAIACAYAAAD0eNT6AAAAGXRFWHRTb2Z0d2FyZQBBZG9iZSBJbWFnZVJlYWR5ccllPAAAA3ZpVFh0WE1MOmNvbS5hZG9iZS54bXAAAAAAADw/eHBhY2tldCBiZWdpbj0i77u/IiBpZD0iVzVNME1wQ2VoaUh6cmVTek5UY3prYzlkIj8+IDx4OnhtcG1ldGEgeG1sbnM6eD0iYWRvYmU6bnM6bWV0YS8iIHg6eG1wdGs9IkFkb2JlIFhNUCBDb3JlIDUuNi1jMTExIDc5LjE1ODMyNSwgMjAxNS8wOS8xMC0wMToxMDoyMCAgICAgICAgIj4gPHJkZjpSREYgeG1sbnM6cmRmPSJodHRwOi8vd3d3LnczLm9yZy8xOTk5LzAyLzIyLXJkZi1zeW50YXgtbnMjIj4gPHJkZjpEZXNjcmlwdGlvbiByZGY6YWJvdXQ9IiIgeG1sbnM6eG1wTU09Imh0dHA6Ly9ucy5hZG9iZS5jb20veGFwLzEuMC9tbS8iIHhtbG5zOnN0UmVmPSJodHRwOi8vbnMuYWRvYmUuY29tL3hhcC8xLjAvc1R5cGUvUmVzb3VyY2VSZWYjIiB4bWxuczp4bXA9Imh0dHA6Ly9ucy5hZG9iZS5jb20veGFwLzEuMC8iIHhtcE1NOk9yaWdpbmFsRG9jdW1lbnRJRD0ieG1wLmRpZDowMjE0NTc3Zi04MmQ2LTA4NGQtYTlmMS1kMDc0M2FiYjA1OGQiIHhtcE1NOkRvY3VtZW50SUQ9InhtcC5kaWQ6OTQ4RDJGMzRCRjVFMTFFNTg0MEVEQkU2REM3QTkxQUQiIHhtcE1NOkluc3RhbmNlSUQ9InhtcC5paWQ6OTQ4RDJGMzNCRjVFMTFFNTg0MEVEQkU2REM3QTkxQUQiIHhtcDpDcmVhdG9yVG9vbD0iQWRvYmUgUGhvdG9zaG9wIENDIDIwMTUgKFdpbmRvd3MpIj4gPHhtcE1NOkRlcml2ZWRGcm9tIHN0UmVmOmluc3RhbmNlSUQ9InhtcC5paWQ6MDIxNDU3N2YtODJkNi0wODRkLWE5ZjEtZDA3NDNhYmIwNThkIiBzdFJlZjpkb2N1bWVudElEPSJ4bXAuZGlkOjAyMTQ1NzdmLTgyZDYtMDg0ZC1hOWYxLWQwNzQzYWJiMDU4ZCIvPiA8L3JkZjpEZXNjcmlwdGlvbj4gPC9yZGY6UkRGPiA8L3g6eG1wbWV0YT4gPD94cGFja2V0IGVuZD0iciI/PpNX8NsAAAe+SURBVHja7NzBbYNAFEXREE0BKSElpAS7JK/4O3v5y3AnUAIluAR3QNhm4SiRMB4x50goOyIelnyVkdLN8/wGALSlEwAAIAAAAAEAAAgAAEAAAAACAAAQAACAAAAABAAAIAAAAAEAAAgAAEAAAAACAAAQAACAAAAABAAAIAAAQAAAAAIAABAAAIAAAAAEAAAgAAAAAQAACAAAQAAAAAIAABAAAIAAAAAEAAAgAAAAAQAACAAAQAAAgAAAAAQAACAAAAABAAAIAABAAAAAAgAAEAAAgAAAAAQAACAAAAABAAAIAABAAAAAAgAAEAAAgAAAAAEAAAgAAEAAAAACAAAQAACAAAAABAAAIAAAAAEAAAgAAEAAAAACAAAQAACAAAAABAAAIAAAAAEAAALACgAgAAAAAQAACAAAQAAAAAIAABAAAIAAAAAEAAAgAAAAAQAACAAAQAAAAAIAABAAAIAAAAAEAAAIAAHAbj7MXWcEfsjMYflxWPGWY9/3R8uyB+8mAAABAAAIAABAAAAAAgAAEAAAgAAAAAQAACAAAAABAAAIAABAAAAAAgAAEAAAgAAAAAQAACAAAAABAAACAAAQAACAAAAABAAAIAAAAAEAAAgAAEAAAAACAAAQAACAAAAABAAAIAAAAAEAAAgAAEAAAAACAAAEAAAgAAAAAQAACAAAQAAAAAIAABAAAIAAAAAEAAAgAAAAAQAACAAAQAAAAAIAABAAAIAAAAAEAAAIAABAAAAAAgAAEAAAgAAAAAQAACAAAAABAAAIAABAAAAAAgAAEAAAgAAAAAQAACAAAAABAAAIAAAQAABAY4oJ2IvMvFihSreIuJoBBAA8y9kEVRqXSwBAZRwBAIAAAAAEAAAgAAAAAQAACAAAQAAAAAIAABAAAIAAAAAEAAAgAAAAAQAACAAAQAAAAAIAABAAAIAAAAABAAA0opgAHpqW69Tgcw9ePQgAaNk9IsbWHjozvXlogCMAABAAAIAAAAAEAAAgAAAAAQAACAAAQAAAAAIAABAAAIAAAAAEAAAgAAAAAQAACAAAQAAAAAIAABAAACAAAAABAAAIAABAAAAAAgAAEAAAgAAAAAQAACAAAAABAAAIAABAAAAAAgAAEAAAgAAAAAQAACAAAEAAAAACAAAQAACAAAAABAAAIAAAAAEAAAgAAEAAAAACAAAQAACAAAAABAAAIAAAAAEAAAgAAEAAAIAAAAAEAAAgAAAAAQAACAAAQAAAAAIAAKhQMQHwZJ+ZeXnV7zY/CADgdV/CZzNAXRwBAIAAAAAEAAAgAAAAAQAACAAAQAAAAAIAABAAAIAAAAAEAAAgAAAAAQAACAAAQAAAAAIAABAAAIAAAAABAAA0opgAeLJpuU47eZa714kAAPjjl2ZEjHt5mL7vvVF2wREAAAgAAEAAAAACAAAQAACAAAAABAAAIAAAAAEAAAgAAEAAAAACAAAQAACAAAAABAAAIAAAAAEAAAgAABAAAIAAAAAEAAAgAAAAAQAACAAAQAAAAAIAABAAAIAAAAAEAAAgAAAAAQAACAAAQAAAAAIAABAAACAAAAABAAAIAABAAAAAAgAAEAAAgAAAAAQAACAAAAABAAAIAABAAAAAAgAAEAAAgAAAAAQAACAAAEAAAAACAAAQAACAAAAABAAAIAAAAAEAAAgAAEAAAAACAAAQAACAAAAABAAAIAAAAAEAAPyimAC2k5mXlW95i4irZQEBAHU7r3y/cbkEAPBvjgAAQAAAAAIAABAAAIAAAAAEAAAgAAAAAQAACAAAQAAAAAIAABAAAIAAAAAEAAAgAAAAAQAACAAAQAAAgAAAABpRTACbOq58v7tJAQEAlYuI0QpADRwBAIAAAAAEAAAgAAAAAQAACAAAQAAAAAIAABAAAIAAAAC25F8Bw4Yyc1j5llNEnCwLCACo28EEQA0cAQCAAAAABAAAIAAAAAEAAAgAAEAAAAACAAAQAACAAAAABAAAIAAAAAEAAAgAAEAAAAACAAAQAACAAAAAAQAANKKYALYTEZ0VAH8BAAAEAAAgAAAAAQAACAAAQAAAAAIAABAAAIAAAAABAAAIAABAAAAAAgAAEAAAgAAAAAQAACAAAAABAAAIAABgM8UE8NBXZg5mAAQAtOVjuQ5mAPbIEQAACAAAQAAAAAIAABAAAIAAAAAEAAAgAAAAAQAACAAAQAAAAAIAABAAAIAAAAAEAAAgAAAAAQAACAAAEAAAQCO6eZ6tAAACAAAQAACAAAAABAAAIAAAAAEAAAgAAEAAAAACAAAQAACAAAAABAAAIAAAAAEAAAgAAEAAAIAAEAAAIAAAAAEAAAgAAEAAAAACAAAQAACAAAAABAAAIAAAAAEAAAgAAEAAAAACAAAQAACAAAAABAAAIAAAQAAAAAIAABAAAIAAAAAEAAAgAAAAAQAACAAAQAAAAAIAABAAAIAAAAAEAAAgAAAAAQAACAAAQAAAgAAAAAQAACAAAAABAAAIAABAAAAAAgAAEAAAgAAAAAQAACAAAAABAAAIAABAAAAAAgAAEAAAgAAAAAEAAAgAAEAAAAACAAAQAACAAAAABAAAIAAAAAEAAAgAAEAAAAACAAAQAACAAAAABAAAIAAAAAEAAALACgDQmG8BBgC0rD5xXt71agAAAABJRU5ErkJggg==" vertex="1" parent="1">
                    <mxGeometry x="1002" y="557" width="85" height="85" as="geometry"/>
                </mxCell>
                <mxCell id="30" value="" style="shape=image;verticalLabelPosition=bottom;verticalAlign=top;imageAspect=0;aspect=fixed;image=data:image/png,iVBORw0KGgoAAAANSUhEUgAAAgAAAAIACAYAAAD0eNT6AAAAGXRFWHRTb2Z0d2FyZQBBZG9iZSBJbWFnZVJlYWR5ccllPAAAA3ZpVFh0WE1MOmNvbS5hZG9iZS54bXAAAAAAADw/eHBhY2tldCBiZWdpbj0i77u/IiBpZD0iVzVNME1wQ2VoaUh6cmVTek5UY3prYzlkIj8+IDx4OnhtcG1ldGEgeG1sbnM6eD0iYWRvYmU6bnM6bWV0YS8iIHg6eG1wdGs9IkFkb2JlIFhNUCBDb3JlIDUuNi1jMTExIDc5LjE1ODMyNSwgMjAxNS8wOS8xMC0wMToxMDoyMCAgICAgICAgIj4gPHJkZjpSREYgeG1sbnM6cmRmPSJodHRwOi8vd3d3LnczLm9yZy8xOTk5LzAyLzIyLXJkZi1zeW50YXgtbnMjIj4gPHJkZjpEZXNjcmlwdGlvbiByZGY6YWJvdXQ9IiIgeG1sbnM6eG1wTU09Imh0dHA6Ly9ucy5hZG9iZS5jb20veGFwLzEuMC9tbS8iIHhtbG5zOnN0UmVmPSJodHRwOi8vbnMuYWRvYmUuY29tL3hhcC8xLjAvc1R5cGUvUmVzb3VyY2VSZWYjIiB4bWxuczp4bXA9Imh0dHA6Ly9ucy5hZG9iZS5jb20veGFwLzEuMC8iIHhtcE1NOk9yaWdpbmFsRG9jdW1lbnRJRD0ieG1wLmRpZDowMjE0NTc3Zi04MmQ2LTA4NGQtYTlmMS1kMDc0M2FiYjA1OGQiIHhtcE1NOkRvY3VtZW50SUQ9InhtcC5kaWQ6OTQ4RDJGMzRCRjVFMTFFNTg0MEVEQkU2REM3QTkxQUQiIHhtcE1NOkluc3RhbmNlSUQ9InhtcC5paWQ6OTQ4RDJGMzNCRjVFMTFFNTg0MEVEQkU2REM3QTkxQUQiIHhtcDpDcmVhdG9yVG9vbD0iQWRvYmUgUGhvdG9zaG9wIENDIDIwMTUgKFdpbmRvd3MpIj4gPHhtcE1NOkRlcml2ZWRGcm9tIHN0UmVmOmluc3RhbmNlSUQ9InhtcC5paWQ6MDIxNDU3N2YtODJkNi0wODRkLWE5ZjEtZDA3NDNhYmIwNThkIiBzdFJlZjpkb2N1bWVudElEPSJ4bXAuZGlkOjAyMTQ1NzdmLTgyZDYtMDg0ZC1hOWYxLWQwNzQzYWJiMDU4ZCIvPiA8L3JkZjpEZXNjcmlwdGlvbj4gPC9yZGY6UkRGPiA8L3g6eG1wbWV0YT4gPD94cGFja2V0IGVuZD0iciI/PpNX8NsAAAe+SURBVHja7NzBbYNAFEXREE0BKSElpAS7JK/4O3v5y3AnUAIluAR3QNhm4SiRMB4x50goOyIelnyVkdLN8/wGALSlEwAAIAAAAAEAAAgAAEAAAAACAAAQAACAAAAABAAAIAAAAAEAAAgAAEAAAAACAAAQAACAAAAABAAAIAAAQAAAAAIAABAAAIAAAAAEAAAgAAAAAQAACAAAQAAAAAIAABAAAIAAAAAEAAAgAAAAAQAACAAAQAAAgAAAAAQAACAAAAABAAAIAABAAAAAAgAAEAAAgAAAAAQAACAAAAABAAAIAABAAAAAAgAAEAAAgAAAAAEAAAgAAEAAAAACAAAQAACAAAAABAAAIAAAAAEAAAgAAEAAAAACAAAQAACAAAAABAAAIAAAAAEAAALACgAgAAAAAQAACAAAQAAAAAIAABAAAIAAAAAEAAAgAAAAAQAACAAAQAAAAAIAABAAAIAAAAAEAAAIAAHAbj7MXWcEfsjMYflxWPGWY9/3R8uyB+8mAAABAAAIAABAAAAAAgAAEAAAgAAAAAQAACAAAAABAAAIAABAAAAAAgAAEAAAgAAAAAQAACAAAAABAAACAAAQAACAAAAABAAAIAAAAAEAAAgAAEAAAAACAAAQAACAAAAABAAAIAAAAAEAAAgAAEAAAAACAAAEAAAgAAAAAQAACAAAQAAAAAIAABAAAIAAAAAEAAAgAAAAAQAACAAAQAAAAAIAABAAAIAAAAAEAAAIAABAAAAAAgAAEAAAgAAAAAQAACAAAAABAAAIAABAAAAAAgAAEAAAgAAAAAQAACAAAAABAAAIAAAQAABAY4oJ2IvMvFihSreIuJoBBAA8y9kEVRqXSwBAZRwBAIAAAAAEAAAgAAAAAQAACAAAQAAAAAIAABAAAIAAAAAEAAAgAAAAAQAACAAAQAAAAAIAABAAAIAAAAABAAA0opgAHpqW69Tgcw9ePQgAaNk9IsbWHjozvXlogCMAABAAAIAAAAAEAAAgAAAAAQAACAAAQAAAAAIAABAAAIAAAAAEAAAgAAAAAQAACAAAQAAAAAIAABAAACAAAAABAAAIAABAAAAAAgAAEAAAgAAAAAQAACAAAAABAAAIAABAAAAAAgAAEAAAgAAAAAQAACAAAEAAAAACAAAQAACAAAAABAAAIAAAAAEAAAgAAEAAAAACAAAQAACAAAAABAAAIAAAAAEAAAgAAEAAAIAAAAAEAAAgAAAAAQAACAAAQAAAAAIAAKhQMQHwZJ+ZeXnV7zY/CADgdV/CZzNAXRwBAIAAAAAEAAAgAAAAAQAACAAAQAAAAAIAABAAAIAAAAAEAAAgAAAAAQAACAAAQAAAAAIAABAAAIAAAAABAAA0opgAeLJpuU47eZa714kAAPjjl2ZEjHt5mL7vvVF2wREAAAgAAEAAAAACAAAQAACAAAAABAAAIAAAAAEAAAgAAEAAAAACAAAQAACAAAAABAAAIAAAAAEAAAgAABAAAIAAAAAEAAAgAAAAAQAACAAAQAAAAAIAABAAAIAAAAAEAAAgAAAAAQAACAAAQAAAAAIAABAAACAAAAABAAAIAABAAAAAAgAAEAAAgAAAAAQAACAAAAABAAAIAABAAAAAAgAAEAAAgAAAAAQAACAAAEAAAAACAAAQAACAAAAABAAAIAAAAAEAAAgAAEAAAAACAAAQAACAAAAABAAAIAAAAAEAAPyimAC2k5mXlW95i4irZQEBAHU7r3y/cbkEAPBvjgAAQAAAAAIAABAAAIAAAAAEAAAgAAAAAQAACAAAQAAAAAIAABAAAIAAAAAEAAAgAAAAAQAACAAAQAAAgAAAABpRTACbOq58v7tJAQEAlYuI0QpADRwBAIAAAAAEAAAgAAAAAQAACAAAQAAAAAIAABAAAIAAAAC25F8Bw4Yyc1j5llNEnCwLCACo28EEQA0cAQCAAAAABAAAIAAAAAEAAAgAAEAAAAACAAAQAACAAAAABAAAIAAAAAEAAAgAAEAAAAACAAAQAACAAAAAAQAANKKYALYTEZ0VAH8BAAAEAAAgAAAAAQAACAAAQAAAAAIAABAAAIAAAAABAAAIAABAAAAAAgAAEAAAgAAAAAQAACAAAAABAAAIAABgM8UE8NBXZg5mAAQAtOVjuQ5mAPbIEQAACAAAQAAAAAIAABAAAIAAAAAEAAAgAAAAAQAACAAAQAAAAAIAABAAAIAAAAAEAAAgAAAAAQAACAAAEAAAQCO6eZ6tAAACAAAQAACAAAAABAAAIAAAAAEAAAgAAEAAAAACAAAQAACAAAAABAAAIAAAAAEAAAgAAEAAAIAAEAAAIAAAAAEAAAgAAEAAAAACAAAQAACAAAAABAAAIAAAAAEAAAgAAEAAAAACAAAQAACAAAAABAAAIAAAQAAAAAIAABAAAIAAAAAEAAAgAAAAAQAACAAAQAAAAAIAABAAAIAAAAAEAAAgAAAAAQAACAAAQAAAgAAAAAQAACAAAAABAAAIAABAAAAAAgAAEAAAgAAAAAQAACAAAAABAAAIAABAAAAAAgAAEAAAgAAAAAEAAAgAAEAAAAACAAAQAACAAAAABAAAIAAAAAEAAAgAAEAAAAACAAAQAACAAAAABAAAIAAAAAEAAALACgDQmG8BBgC0rD5xXt71agAAAABJRU5ErkJggg==" vertex="1" parent="1">
                    <mxGeometry x="1002" y="472" width="85" height="85" as="geometry"/>
                </mxCell>
                <mxCell id="32" value="LTE　CATM" style="text;html=1;strokeColor=none;fillColor=none;align=center;verticalAlign=middle;whiteSpace=wrap;rounded=0;fontSize=14;fontColor=#009900;" vertex="1" parent="1">
                    <mxGeometry x="727" y="481" width="60" height="30" as="geometry"/>
                </mxCell>
                <mxCell id="33" value="Lora子機" style="text;html=1;strokeColor=none;fillColor=none;align=center;verticalAlign=middle;whiteSpace=wrap;rounded=0;fontSize=14;fontColor=#CCCC00;" vertex="1" parent="1">
                    <mxGeometry x="1077" y="515" width="60" height="30" as="geometry"/>
                </mxCell>
                <mxCell id="34" value="Lora子機" style="text;html=1;strokeColor=none;fillColor=none;align=center;verticalAlign=middle;whiteSpace=wrap;rounded=0;fontSize=14;fontColor=#CCCC00;" vertex="1" parent="1">
                    <mxGeometry x="1077" y="587" width="60" height="30" as="geometry"/>
                </mxCell>
                <mxCell id="35" value="" style="endArrow=classic;html=1;fontSize=14;fontColor=#CCCC00;strokeColor=#999900;shadow=0;dashed=1;dashPattern=1 1;" edge="1" parent="1" source="30">
                    <mxGeometry width="50" height="50" relative="1" as="geometry">
                        <mxPoint x="985" y="591" as="sourcePoint"/>
                        <mxPoint x="752" y="586.4676258992806" as="targetPoint"/>
                    </mxGeometry>
                </mxCell>
                <mxCell id="36" value="" style="endArrow=classic;html=1;fontSize=14;fontColor=#CCCC00;strokeColor=#999900;exitX=0;exitY=0.5;exitDx=0;exitDy=0;dashed=1;dashPattern=1 1;" edge="1" parent="1" source="29">
                    <mxGeometry width="50" height="50" relative="1" as="geometry">
                        <mxPoint x="1012" y="534.9568345323742" as="sourcePoint"/>
                        <mxPoint x="762" y="596.4676258992806" as="targetPoint"/>
                    </mxGeometry>
                </mxCell>
                <mxCell id="39" value="Lora-LTE　Gateway" style="text;html=1;strokeColor=#A50040;fillColor=none;align=center;verticalAlign=middle;whiteSpace=wrap;rounded=0;fontSize=14;fontColor=#000000;" vertex="1" parent="1">
                    <mxGeometry x="760" y="607" width="124" height="45" as="geometry"/>
                </mxCell>
                <mxCell id="44" style="edgeStyle=none;sketch=0;html=1;shadow=0;dashed=1;dashPattern=1 1;strokeColor=#999900;fontSize=14;fontColor=#000000;" edge="1" parent="1" source="43">
                    <mxGeometry relative="1" as="geometry">
                        <mxPoint x="693.3333740234375" y="341.5" as="targetPoint"/>
                    </mxGeometry>
                </mxCell>
                <mxCell id="43" value="topic LTE/spresense&lt;br&gt;" style="text;html=1;strokeColor=none;fillColor=none;align=center;verticalAlign=middle;whiteSpace=wrap;rounded=0;labelBorderColor=none;fontSize=14;fontColor=#000000;" vertex="1" parent="1">
                    <mxGeometry x="693" y="334" width="60" height="15" as="geometry"/>
                </mxCell>
                <mxCell id="45" value="" style="shape=image;verticalLabelPosition=bottom;verticalAlign=top;imageAspect=0;aspect=fixed;image=data:image/png,iVBORw0KGgoAAAANSUhEUgAAAgAAAAIACAYAAAD0eNT6AAAAGXRFWHRTb2Z0d2FyZQBBZG9iZSBJbWFnZVJlYWR5ccllPAAAEVFJREFUeNrs3U9u3cYBx3Gm0L7vBmF33lkIkLXpE8g9gZ9PYOcEik5g6wR5PkHlE/hlbSBQdtmVuYF6AvexfgKMNLH1Z372zJvPBxCaoghB0XT5neGQ/Ob9+/cDANCXvzkEACAAAAABAAAIAABAAAAAAgAAEAAAgAAAAAQAACAAAAABAAAIAABAAAAAAgAAEAAAgAAAAAQAACAAAEAAAAACAAAQAACAAAAABAAAIAAAAAEAAAgAAEAAAAACAAAQAACAAAAABAAAIAAAAAEAAAgAAEAAAIAAAAAEAAAgAAAAAQAACAAAQAAAAAIAABAAAIAAAAAEAAAgAAAAAQAACAAAQAAAAAIAABAAAIAAAAABAAAIAABAAAAAAgAAEAAAgAAAAAQAACAAAAABAAAIAABAAAAAAgAAEAAAgAAAAAQAACAAAAABAAACAAAQAACAAAAABAAAIAAAAAEAAAgAAEAAAAACAAAQAACAAAAABAAAIAAAAAEAAAgAAEAAAAACAAAEgEMAAAIAABAAAIAAAAAEAAAgAACARhz1fgC+/+U3ZwHwJbzc/RwX3N7lu+8e/OCwIgAA6rZc/CeHgVq4BQAAAgAAEAAAgAAAAAQAACAAAAABAAAIAABAAAAAAgAAEAAAgAAAAAQAACAAAAABAAAIAABAAAAAAgAABAAAIAAAAAEAAAgAAEAAAAACAAAQAACAAAAABAAAIAAAAAEAAAgAAEAAAAACAAAQAACAAAAABAAACAAAQAAAAAIAABAAAIAAAAAEAAAgAAAAAQAACAAAQAAAAAIAABAAAIAAAAAEAAAgAAAAAQAACAAAEAAAgAAAAAQAACAAAAABAAAIAABAAAAAAgAAEAAAgAAAAAQAACAAmvZi97NyGAAQAP14svt5ufv59/6fAUAAdODl/j+XGYB/7X/MBgAgAA7YMvU//smMgNkAAATAgVpG+aef+N/MBgAgAA509P+5i7vZAAC+iiOHIGL8xOj/r2YDLnY/z3Y/Vw7fwVgP/38LiK/vR4cABEDK6R3+nWUWYNpHwIVDeBCe7v9MEQBQHbcAMqP/9R3/XWsDABAAjXpZYBvWBgAgABoyFbxomw0AQAA04jSwzevZgMnhBUAA1Dn6T12klxkATwcAIAA6Gf1f2+x+Lh1iAARAXcbg6H8Z+Z85xAAIgL5G/+e7n9khBkAA1Df6XwdH/68cYgAEQF+j/7PB4j8ABEB1VsHR/2z0D4AAqNOL8OgfAARAhZ4HR/8bhxcAAVCf9ZB7Ra/RPwACwOgfAARADabdz3Fjo/9x8IVBAATAvTxtcPR/uo8AXxgEQADcQfLRv9eh7R7/YZ+fmA0AEADcTurin3zr38u/CBmzAQACgBtKLf47HzJv/ZuGT3+oyGwAgADgBhfTMbTtTWi7N3lVsdkAAAHAJ6QW/y0X//krjP7NBgAIAG4wSk5dGFOL/07v+HuaDQAQAHw0Ok5cEC93P9sKRv9mAwAEAH/iJLTd84pG/2YDAAQAHxlDI+Fl1f+mwtG/2QAAAUDwwrcJbTfxqOL1bIAIABAA3Uit/k8s/huDF+l593PhdAAQAD1YLqiJD/9c7n9KOw0eC58pBhAA3UiNphOL/5KPKi6j/43TAUAA9CI1/Z+YSl8PudX6z5wKAAKgF+OQmf5fLv6J9/6nvlOwHTLvKgBAAFSppTf/PRly3yl47VQAEAA9eRTY5tWQmf5P3aqYB/f+AQRAR1IL6hIX/3HIzVZY+Q8gALqSuqC+aWhfjf4BBEB3Wpr+Ty3+O3caAAgAMwD3l7j4L08pjKFYSY3+J6cXgACo0XJRTTxPn5j+T43+U48qrnc/bwdfGAQQABVKjVATMwCtLf47/Wi/fWEQQABU5aShi39iFL0dPiwATIz+x4/++/UXBs0GAAiAg50BSEz/n4R+/9SLf04/ETJmAwAEwMFd/K9H1YkZgNJSi/8+96ZCswEAAuDgAmD57O8cuKAmLpSb0HF9fovfy2wAgAD44hLP/ydG/y1N/0+3DCuzAQAC4CBmAFp5+9/l/qe0p/f4Hc0GAAiAJi/+iRmA1HsKEqP/cfiw+v+uzAYACIC44wYu/qnR/yLxqOK64O9sNgBAAEQk7v//HNhm4v5/YqHiouRnis0GAAiAbmcAVqH9TEz/f+7Rv/ts99jpCiAAShhDF6vSAdDS9P/T0L5uh8ytFQABYPRf5cV/kbhNkZj+Xw3tfacAQAAIgGIX1tKmRkJlHfpzmo3+AQRA7SPr0gsAxyFzmyJx/z81/W/0DyAAil9ca58BSIz+rwL7uRzL49C+bpyqAAKglFUgAJaL1Vx4m628pjh17//cqQogAEpq5f5/Yj8TrylOTf8b/QMIgOovrD83sp+lZwBWwf2cnaoAAqCkbxuYAZgC+zgPmc8UJ7x2mgIIgBZG1i0EwDawzcRripf1FBdOUwAB0EIAlB5ZPwzs46+BbSZC5WIfAQAIgKJKf1gmMbJu4f5/6jPFb5yiAAKghRHrHNjmGNhmK+8pMP0PIACqH/0vfm/gwroNbPOkkf0EEAAOQRMLAFsY/aeOpel/AAEQ8ffANucGAqD0AsDU/X/T/wACoNsZgEcN7OMU2ker/wEEQETpUWvigpWYASgdAInHFLdOTwAB0MoMQOLe+tjAPrbyOmUABEBE6RmAFl5SlNpPMwAAAqC873/5bQpstvTiulUD+5haR+H+P4AA6FYLMwCtfE4ZAAHwP2Ngm9sGZgDmBo7jr/56AgiAlgKgtBY+VfywgX0EQABEtTC6Ln1vPTFLsXUqAQiAlBbeAtjC/k2dHUMAAdC44wb2sceLqwAAEABNaeHCVXr6fwrsoxcAAQgAAVCY1fUADEed//6ryvdvauAYegMgrflaf69WDj0C4LAvXiIK6vbWIQC3AEpr4dW1LYyuvQMAQAA0pcf764kXFfkGAIAA6NpoHwEQAAKgB6b/AQQAHTL9DyAACNg6BAB0GwDf//KbRwABEAAd8vw6AAIAABAAAIAAAAAEwGHwuBkAAqA377574IUzAAgAujE5BAAIAGrj8UwAAdC9ucPf2QuaAASAALCPAAiA+j3s8Hf+PbBNtwEABEBTWrhwTQ3so9sAAGFHnf/+ly429+Z9CrTmsb97IABq/wu0bSSiSpsGny2m779XEOcWQFljA/v40B8TAAKgvwAovU4hMZp65FQCEABJLbwOuPQFtoVIGf3VBBAASf/p8OKV2L8eIwVAABC9eM2BfSx9GyCxmHJyKgEIgJS5gX1MvGin9KOPvzawjwAIgGgAlB65JkbXYwPH0dMKAAKga4mFimMD+2gGAEAAZLz77sG2gZHrVQP7mAoA3wQAEADNKH3RamEGILWfk9MJQACklL5wJaau5wb2MREAXggEIABiSk+xJ6at58A2W3gSwAwAgACIaeHi+nMD+7gN7aN1AAACICLxnP3YQKQkFgImFiw+cYoCCICEFh5hmxvYx9SxPHGKAgiAhMSo9dvC29sG9nEKbPNNI/sJIAAcgsjFdQxss4VZgMSxXNYAuA0AIACamAVIjFpbeM4+tQ7AbQAAARDRwst2Eo/ZJd63n5gFMAMAIACaCYAWptenwDYT6wCW2wBrpymAACithU/uJgJgHMrPVFyE/oyeOk0BBEALMwCPGtnP0rMAV8H9HJ2qAAKg9gtr4jn7xCxAYoHd69Cf09qpCiAASo9a58LbXA1tLAScAttM3QZ47lQFEAClzYFttvKcfeLNhZehfTULACAAikp8cKf0OoA5FCqJBXap2wCnTlUAAVBSz+sApsA2N6E/p3HwemAAAVB5ACQuVKlPA4+Ft7msq0itBTALACAAipmHzPR66QhIXVQTb9tL3QaYzAIACIDeZgFSz9kn1gFchKLqInQMAARAp1pYCLhIvG43cRug9CzAEj//3P9cOV0BBEBPMwDXI+CExG2ATcHf+R/B3x1AAHRsG9pu6QhYQmUO7GfiNsB8zwgw6gcQAM1GwEkj+3k8ZB5dvOttAKN+AAHwxSTWAUyBbb4J/f6JWYDtLYPFqB9AABzEDEBigd1F6OK4Dh3Xc6N+AAHQWwCkZgESF8nU+/Y/90igUT+AADjICEisA2jpNsDizKgfQADULHFhTTxil7oNMA2ZdwJs/jALYNQPIAAOfgYgGQEJqfftnxn1AwiAWl2GRqSJ2wDnoWOwxMoqNAvw2KgfQADUKjEyTcwApF4KlFoMuNg6vQAEQK0S7wNYhSIgNQvw3GkAIADMAJRx0tC+jsFZAAAEQJWuhnZuA8xDe4sBARAA1WrpNsDr0DEwCwAgALqTGlU/De3r3ND+AiAAqrVcUC8D2009YpdaDDgNmVcZAyAAqpWaWk/cBtgMuWfrf3IqAAiAnqRuAyQesbsaPBEAgAAoYh4ytwGO9z+lnQWPhScCAARAV1K3ARKL6+bwLMATpwOAAOhF6oK6Dm03sRjw+st9Pt4DIAC6kRpVp963vx3Kvm/fl/sABEC33oS2m3rffom1ANejfl/uAxAA3boIXQSXhYBThbMARv0AAoAh+4hd6k17Z3f8PY36AQ7ckUNwK8vTAOvAdtf7i/UcmgWYbjHqf+bC35XHhbf3csg83goIgK9qu79Ij6EI+DE0C/C5ALjaX/hN9/d5TpckHqERbgHcXup9+8tiwMT3Abaf+T959/oBBAA3sAltd7n4vwht+4e/GKm51w8gALihq2AEpBYDXv5hn436AQQAd5B6NfA45N4OeL3I0KgfAAFwR9sh84GgReqDO7NRPwAC4P5SiwGTswAAIADuaTPkptF9dhcAAWAWAAAEQE1eBbdtFgAAAVCp5COByyzAC4cYAAFQp7PgtpdZgJVDDIAAqM88tPl2QAAEABXPAizfCBgdYgAEQJ2zANvgLIAFgQAIgA5nAdaDb6wDIACqtA3OAlwNFgMCIAC6mgW4/nLf1uEFQADUOwtQ6mM7y6jfl/sAiDhyCIr7YffzpMCo/5kLP1/A28Lbs1YFBEC35uHDewHWdxz1Pxt8spcvZ3IIoE9uAWTcZS3A9b1+F38ABEDDswA3jQD3+gEQAAfk1Q0u6Eb9AAiAA3P1iVkAo34ABMCBzwLMRv0ACID+PDPqB6A2HgPM2w4f3g2wceEHQAD05ZVDAEBN3AIAAAEAAPTALQDo27bw9pZvAfh0NQgAoHKPC29v+bjQ5LBC/dwCAAABAAAIAABAAAAAAgAAEAAAgAAAAAQAACAAAAABAAAIAABAAAAAAgAAEAAAgAAAAAQAACAAAAABAAB9OnIIoGtT4e2tHFIQAED93joE0Ce3AABAAAAAAgAAEAAAgAAAAAQAACAAAAABAAAIAABAAAAAAgAAEAAAgAAAAAQAACAAAAABAAAIAABAAACAAAAABAAAIAAAAAEAAAgAAEAAAAACAAAQAACAAAAABAAAIAAAAAEAAAgAAEAAAAACAAAQAACAAAAAAQAACAAAQAAAAAIAABAAAIAAAAAEAAAgAAAAAQAACAAAQAAAAAIAABAAAIAAAABu6MghgJhLhwCo1Tfv3793FACgM24BAIAAAAAEAAAgAAAAAQAACAAAQAAAAAIAABAAAIAAAAAEAAAgAAAAAQAACAAAQAAAAAIAABAAAIAAAAABAAAIAABAAAAAAgAAEAAAgAAAAAQAACAAAAABAAAIAABAAAAAAgAAEAAAgAAAAAQAACAAAAABAAACAAAQAACAAAAABAAAIAAAAAEAAAgAAEAAAAACAAAQAACAAAAABAAAIAAAAAEAAAgAAEAAAAACAAAEAAAgAAAAAQAACAAAQAAAAAIAABAAAIAAAAAEAAAgAAAAAQAACAAAQAAAAAIAABAAAIAAAAAEAAAIAABAAAAAAgAAEAAAgAAAAAQAACAAAAABAAAIAABAAAAAAgAAEAAAgAAAAO7jvwIMAOBlX1y+7RcIAAAAAElFTkSuQmCC;labelBorderColor=none;strokeColor=#0a0a0a;fontSize=14;fontColor=#000000;fillColor=none;" vertex="1" parent="1">
                    <mxGeometry x="632" y="521.5" width="144" height="144" as="geometry"/>
                </mxCell>
            </root>
        </mxGraphModel>
    </diagram>
</mxfile>